<svg xmlns="http://www.w3.org/2000/svg" width="1280" height="520" viewBox="0 0 1280 520">
<defs>
<linearGradient id="bg" x1="0" y1="0" x2="0" y2="1">
<stop offset="0%" stop-color="#f8fbff"/>
<stop offset="100%" stop-color="#f2f7fc"/>
</linearGradient>
</defs>
<rect width="100%" height="100%" fill="url(#bg)"/>
<rect x="88.00" y="78.00" width="1160.00" height="366.00" fill="#ffffff" stroke="#dbe6f2" stroke-width="1" rx="8"/>
<line x1="88.00" y1="78.00" x2="1248.00" y2="78.00" stroke="#e6edf6" stroke-width="1"/>
<text x="78.00" y="82.00" text-anchor="end" font-family="Segoe UI,Arial,sans-serif" font-size="12" fill="#5a6b80">0 dB</text>
<line x1="88.00" y1="169.50" x2="1248.00" y2="169.50" stroke="#e6edf6" stroke-width="1"/>
<text x="78.00" y="173.50" text-anchor="end" font-family="Segoe UI,Arial,sans-serif" font-size="12" fill="#5a6b80">-10 dB</text>
<line x1="88.00" y1="261.00" x2="1248.00" y2="261.00" stroke="#e6edf6" stroke-width="1"/>
<text x="78.00" y="265.00" text-anchor="end" font-family="Segoe UI,Arial,sans-serif" font-size="12" fill="#5a6b80">-20 dB</text>
<line x1="88.00" y1="352.50" x2="1248.00" y2="352.50" stroke="#e6edf6" stroke-width="1"/>
<text x="78.00" y="356.50" text-anchor="end" font-family="Segoe UI,Arial,sans-serif" font-size="12" fill="#5a6b80">-30 dB</text>
<line x1="88.00" y1="444.00" x2="1248.00" y2="444.00" stroke="#e6edf6" stroke-width="1"/>
<text x="78.00" y="448.00" text-anchor="end" font-family="Segoe UI,Arial,sans-serif" font-size="12" fill="#5a6b80">-40 dB</text>
<line x1="88.00" y1="78.00" x2="88.00" y2="444.00" stroke="#eef3f8" stroke-width="1"/>
<text x="88.00" y="466.00" text-anchor="middle" font-family="Segoe UI,Arial,sans-serif" font-size="12" fill="#5a6b80">-90</text>
<line x1="281.33" y1="78.00" x2="281.33" y2="444.00" stroke="#eef3f8" stroke-width="1"/>
<text x="281.33" y="466.00" text-anchor="middle" font-family="Segoe UI,Arial,sans-serif" font-size="12" fill="#5a6b80">-60</text>
<line x1="474.67" y1="78.00" x2="474.67" y2="444.00" stroke="#eef3f8" stroke-width="1"/>
<text x="474.67" y="466.00" text-anchor="middle" font-family="Segoe UI,Arial,sans-serif" font-size="12" fill="#5a6b80">-30</text>
<line x1="668.00" y1="78.00" x2="668.00" y2="444.00" stroke="#eef3f8" stroke-width="1"/>
<text x="668.00" y="466.00" text-anchor="middle" font-family="Segoe UI,Arial,sans-serif" font-size="12" fill="#5a6b80">0</text>
<line x1="861.33" y1="78.00" x2="861.33" y2="444.00" stroke="#eef3f8" stroke-width="1"/>
<text x="861.33" y="466.00" text-anchor="middle" font-family="Segoe UI,Arial,sans-serif" font-size="12" fill="#5a6b80">30</text>
<line x1="1054.67" y1="78.00" x2="1054.67" y2="444.00" stroke="#eef3f8" stroke-width="1"/>
<text x="1054.67" y="466.00" text-anchor="middle" font-family="Segoe UI,Arial,sans-serif" font-size="12" fill="#5a6b80">60</text>
<line x1="1248.00" y1="78.00" x2="1248.00" y2="444.00" stroke="#eef3f8" stroke-width="1"/>
<text x="1248.00" y="466.00" text-anchor="middle" font-family="Segoe UI,Arial,sans-serif" font-size="12" fill="#5a6b80">90</text>
<polyline fill="none" stroke="#0f766e" stroke-width="2.6" points="88.00,318.55 88.64,318.24 89.29,317.94 89.93,317.64 90.58,317.35 91.22,317.06 91.87,316.77 92.51,316.49 93.16,316.21 93.80,315.94 94.44,315.67 95.09,315.40 95.73,315.13 96.38,314.86 97.02,314.60 97.67,314.34 98.31,314.09 98.96,313.84 99.60,313.59 100.24,313.35 100.89,313.11 101.53,312.87 102.18,312.63 102.82,312.40 103.47,312.17 104.11,311.95 104.76,311.72 105.40,311.50 106.04,311.29 106.69,311.08 107.33,310.87 107.98,310.66 108.62,310.46 109.27,310.26 109.91,310.06 110.56,309.86 111.20,309.67 111.84,309.49 112.49,309.30 113.13,309.12 113.78,308.95 114.42,308.77 115.07,308.60 115.71,308.42 116.36,308.26 117.00,308.10 117.64,307.94 118.29,307.78 118.93,307.63 119.58,307.48 120.22,307.34 120.87,307.19 121.51,307.05 122.16,306.91 122.80,306.77 123.44,306.64 124.09,306.52 124.73,306.39 125.38,306.27 126.02,306.15 126.67,306.04 127.31,305.93 127.96,305.82 128.60,305.71 129.24,305.60 129.89,305.50 130.53,305.41 131.18,305.31 131.82,305.23 132.47,305.14 133.11,305.06 133.76,304.97 134.40,304.89 135.04,304.82 135.69,304.74 136.33,304.68 136.98,304.61 137.62,304.55 138.27,304.49 138.91,304.43 139.56,304.38 140.20,304.33 140.84,304.28 141.49,304.23 142.13,304.19 142.78,304.15 143.42,304.12 144.07,304.08 144.71,304.06 145.36,304.03 146.00,304.01 146.64,303.99 147.29,303.96 147.93,303.95 148.58,303.93 149.22,303.92 149.87,303.92 150.51,303.91 151.16,303.91 151.80,303.92 152.44,303.92 153.09,303.93 153.73,303.93 154.38,303.94 155.02,303.96 155.67,303.97 156.31,303.99 156.96,304.01 157.60,304.04 158.24,304.07 158.89,304.10 159.53,304.13 160.18,304.16 160.82,304.19 161.47,304.23 162.11,304.27 162.76,304.31 163.40,304.36 164.04,304.40 164.69,304.45 165.33,304.51 165.98,304.55 166.62,304.61 167.27,304.66 167.91,304.71 168.56,304.77 169.20,304.83 169.84,304.89 170.49,304.96 171.13,305.02 171.78,305.09 172.42,305.15 173.07,305.22 173.71,305.28 174.36,305.35 175.00,305.42 175.64,305.49 176.29,305.56 176.93,305.63 177.58,305.70 178.22,305.77 178.87,305.84 179.51,305.90 180.16,305.97 180.80,306.04 181.44,306.11 182.09,306.18 182.73,306.24 183.38,306.31 184.02,306.38 184.67,306.44 185.31,306.50 185.96,306.56 186.60,306.61 187.24,306.67 187.89,306.72 188.53,306.77 189.18,306.82 189.82,306.87 190.47,306.91 191.11,306.96 191.76,306.99 192.40,307.02 193.04,307.05 193.69,307.07 194.33,307.09 194.98,307.11 195.62,307.12 196.27,307.13 196.91,307.13 197.56,307.13 198.20,307.12 198.84,307.11 199.49,307.09 200.13,307.06 200.78,307.03 201.42,306.99 202.07,306.94 202.71,306.89 203.36,306.83 204.00,306.77 204.64,306.69 205.29,306.61 205.93,306.52 206.58,306.42 207.22,306.31 207.87,306.20 208.51,306.07 209.16,305.94 209.80,305.80 210.44,305.66 211.09,305.49 211.73,305.32 212.38,305.14 213.02,304.95 213.67,304.75 214.31,304.55 214.96,304.33 215.60,304.10 216.24,303.86 216.89,303.62 217.53,303.36 218.18,303.08 218.82,302.80 219.47,302.51 220.11,302.21 220.76,301.90 221.40,301.58 222.04,301.25 222.69,300.91 223.33,300.56 223.98,300.19 224.62,299.82 225.27,299.44 225.91,299.04 226.56,298.64 227.20,298.23 227.84,297.81 228.49,297.38 229.13,296.94 229.78,296.49 230.42,296.03 231.07,295.56 231.71,295.08 232.36,294.59 233.00,294.10 233.64,293.60 234.29,293.09 234.93,292.57 235.58,292.05 236.22,291.51 236.87,290.97 237.51,290.42 238.16,289.87 238.80,289.31 239.44,288.74 240.09,288.17 240.73,287.59 241.38,287.01 242.02,286.42 242.67,285.82 243.31,285.22 243.96,284.62 244.60,284.01 245.24,283.39 245.89,282.77 246.53,282.15 247.18,281.53 247.82,280.90 248.47,280.27 249.11,279.64 249.76,279.00 250.40,278.36 251.04,277.72 251.69,277.07 252.33,276.42 252.98,275.78 253.62,275.13 254.27,274.48 254.91,273.83 255.56,273.18 256.20,272.52 256.84,271.87 257.49,271.21 258.13,270.56 258.78,269.90 259.42,269.25 260.07,268.59 260.71,267.94 261.36,267.29 262.00,266.64 262.64,265.98 263.29,265.33 263.93,264.68 264.58,264.03 265.22,263.38 265.87,262.73 266.51,262.09 267.16,261.45 267.80,260.81 268.44,260.17 269.09,259.53 269.73,258.89 270.38,258.26 271.02,257.63 271.67,257.00 272.31,256.38 272.96,255.75 273.60,255.13 274.24,254.52 274.89,253.90 275.53,253.29 276.18,252.68 276.82,252.07 277.47,251.47 278.11,250.87 278.76,250.27 279.40,249.68 280.04,249.09 280.69,248.51 281.33,247.93 281.98,247.35 282.62,246.77 283.27,246.20 283.91,245.63 284.56,245.07 285.20,244.51 285.84,243.95 286.49,243.40 287.13,242.85 287.78,242.31 288.42,241.77 289.07,241.23 289.71,240.70 290.36,240.17 291.00,239.65 291.64,239.13 292.29,238.61 292.93,238.10 293.58,237.60 294.22,237.10 294.87,236.60 295.51,236.11 296.16,235.62 296.80,235.13 297.44,234.66 298.09,234.18 298.73,233.71 299.38,233.25 300.02,232.79 300.67,232.33 301.31,231.88 301.96,231.44 302.60,230.99 303.24,230.56 303.89,230.13 304.53,229.70 305.18,229.28 305.82,228.86 306.47,228.45 307.11,228.05 307.76,227.64 308.40,227.25 309.04,226.85 309.69,226.47 310.33,226.08 310.98,225.71 311.62,225.34 312.27,224.97 312.91,224.61 313.56,224.26 314.20,223.90 314.84,223.56 315.49,223.22 316.13,222.88 316.78,222.55 317.42,222.23 318.07,221.91 318.71,221.60 319.36,221.29 320.00,220.99 320.64,220.69 321.29,220.39 321.93,220.11 322.58,219.83 323.22,219.55 323.87,219.28 324.51,219.01 325.16,218.76 325.80,218.50 326.44,218.25 327.09,218.01 327.73,217.77 328.38,217.54 329.02,217.32 329.67,217.10 330.31,216.88 330.96,216.67 331.60,216.47 332.24,216.27 332.89,216.08 333.53,215.90 334.18,215.72 334.82,215.54 335.47,215.37 336.11,215.21 336.76,215.05 337.40,214.90 338.04,214.76 338.69,214.62 339.33,214.49 339.98,214.36 340.62,214.24 341.27,214.12 341.91,214.01 342.56,213.91 343.20,213.81 343.84,213.72 344.49,213.63 345.13,213.55 345.78,213.48 346.42,213.41 347.07,213.35 347.71,213.30 348.36,213.25 349.00,213.21 349.64,213.17 350.29,213.14 350.93,213.11 351.58,213.10 352.22,213.09 352.87,213.08 353.51,213.08 354.16,213.09 354.80,213.10 355.44,213.12 356.09,213.14 356.73,213.17 357.38,213.21 358.02,213.26 358.67,213.31 359.31,213.36 359.96,213.42 360.60,213.49 361.24,213.57 361.89,213.65 362.53,213.73 363.18,213.83 363.82,213.93 364.47,214.03 365.11,214.14 365.76,214.26 366.40,214.38 367.04,214.51 367.69,214.65 368.33,214.79 368.98,214.93 369.62,215.09 370.27,215.24 370.91,215.41 371.56,215.58 372.20,215.75 372.84,215.93 373.49,216.12 374.13,216.31 374.78,216.51 375.42,216.71 376.07,216.91 376.71,217.13 377.36,217.34 378.00,217.56 378.64,217.79 379.29,218.02 379.93,218.25 380.58,218.49 381.22,218.74 381.87,218.98 382.51,219.23 383.16,219.49 383.80,219.74 384.44,220.00 385.09,220.27 385.73,220.53 386.38,220.80 387.02,221.07 387.67,221.35 388.31,221.62 388.96,221.89 389.60,222.17 390.24,222.45 390.89,222.73 391.53,223.01 392.18,223.28 392.82,223.56 393.47,223.84 394.11,224.11 394.76,224.39 395.40,224.66 396.04,224.93 396.69,225.19 397.33,225.46 397.98,225.71 398.62,225.97 399.27,226.22 399.91,226.46 400.56,226.70 401.20,226.93 401.84,227.16 402.49,227.38 403.13,227.59 403.78,227.79 404.42,227.98 405.07,228.16 405.71,228.33 406.36,228.50 407.00,228.65 407.64,228.79 408.29,228.91 408.93,229.03 409.58,229.13 410.22,229.22 410.87,229.29 411.51,229.35 412.16,229.39 412.80,229.42 413.44,229.43 414.09,229.42 414.73,229.40 415.38,229.36 416.02,229.31 416.67,229.23 417.31,229.14 417.96,229.03 418.60,228.90 419.24,228.75 419.89,228.59 420.53,228.40 421.18,228.20 421.82,227.98 422.47,227.74 423.11,227.48 423.76,227.21 424.40,226.92 425.04,226.61 425.69,226.28 426.33,225.93 426.98,225.57 427.62,225.19 428.27,224.79 428.91,224.38 429.56,223.96 430.20,223.52 430.84,223.06 431.49,222.59 432.13,222.11 432.78,221.61 433.42,221.11 434.07,220.59 434.71,220.06 435.36,219.51 436.00,218.96 436.64,218.40 437.29,217.84 437.93,217.26 438.58,216.67 439.22,216.08 439.87,215.48 440.51,214.88 441.16,214.27 441.80,213.65 442.44,213.04 443.09,212.41 443.73,211.79 444.38,211.16 445.02,210.53 445.67,209.90 446.31,209.26 446.96,208.63 447.60,207.99 448.24,207.36 448.89,206.72 449.53,206.09 450.18,205.46 450.82,204.83 451.47,204.20 452.11,203.58 452.76,202.95 453.40,202.33 454.04,201.72 454.69,201.10 455.33,200.49 455.98,199.89 456.62,199.29 457.27,198.70 457.91,198.11 458.56,197.52 459.20,196.95 459.84,196.37 460.49,195.81 461.13,195.25 461.78,194.69 462.42,194.14 463.07,193.60 463.71,193.07 464.36,192.55 465.00,192.03 465.64,191.52 466.29,191.01 466.93,190.52 467.58,190.03 468.22,189.55 468.87,189.08 469.51,188.62 470.16,188.17 470.80,187.72 471.44,187.29 472.09,186.86 472.73,186.44 473.38,186.03 474.02,185.63 474.67,185.24 475.31,184.86 475.96,184.49 476.60,184.13 477.24,183.77 477.89,183.43 478.53,183.10 479.18,182.78 479.82,182.46 480.47,182.16 481.11,181.87 481.76,181.59 482.40,181.32 483.04,181.06 483.69,180.81 484.33,180.57 484.98,180.34 485.62,180.12 486.27,179.92 486.91,179.72 487.56,179.53 488.20,179.36 488.84,179.20 489.49,179.05 490.13,178.91 490.78,178.79 491.42,178.67 492.07,178.57 492.71,178.47 493.36,178.39 494.00,178.32 494.64,178.27 495.29,178.22 495.93,178.19 496.58,178.17 497.22,178.17 497.87,178.17 498.51,178.19 499.16,178.22 499.80,178.27 500.44,178.32 501.09,178.39 501.73,178.48 502.38,178.58 503.02,178.69 503.67,178.81 504.31,178.95 504.96,179.10 505.60,179.26 506.24,179.44 506.89,179.64 507.53,179.84 508.18,180.07 508.82,180.30 509.47,180.56 510.11,180.82 510.76,181.10 511.40,181.40 512.04,181.71 512.69,182.03 513.33,182.37 513.98,182.73 514.62,183.10 515.27,183.49 515.91,183.89 516.56,184.31 517.20,184.75 517.84,185.20 518.49,185.66 519.13,186.14 519.78,186.64 520.42,187.16 521.07,187.69 521.71,188.24 522.36,188.80 523.00,189.38 523.64,189.97 524.29,190.59 524.93,191.21 525.58,191.85 526.22,192.51 526.87,193.18 527.51,193.87 528.16,194.58 528.80,195.29 529.44,196.03 530.09,196.77 530.73,197.53 531.38,198.30 532.02,199.08 532.67,199.87 533.31,200.67 533.96,201.48 534.60,202.30 535.24,203.12 535.89,203.95 536.53,204.78 537.18,205.61 537.82,206.44 538.47,207.27 539.11,208.09 539.76,208.91 540.40,209.72 541.04,210.51 541.69,211.29 542.33,212.05 542.98,212.78 543.62,213.49 544.27,214.16 544.91,214.80 545.56,215.40 546.20,215.96 546.84,216.48 547.49,216.94 548.13,217.34 548.78,217.68 549.42,217.96 550.07,218.17 550.71,218.31 551.36,218.37 552.00,218.35 552.64,218.25 553.29,218.07 553.93,217.80 554.58,217.45 555.22,217.01 555.87,216.49 556.51,215.89 557.16,215.20 557.80,214.43 558.44,213.58 559.09,212.66 559.73,211.68 560.38,210.62 561.02,209.50 561.67,208.32 562.31,207.08 562.96,205.80 563.60,204.47 564.24,203.10 564.89,201.69 565.53,200.25 566.18,198.78 566.82,197.28 567.47,195.76 568.11,194.23 568.76,192.67 569.40,191.11 570.04,189.54 570.69,187.96 571.33,186.37 571.98,184.79 572.62,183.20 573.27,181.62 573.91,180.04 574.56,178.47 575.20,176.90 575.84,175.34 576.49,173.78 577.13,172.24 577.78,170.71 578.42,169.19 579.07,167.68 579.71,166.19 580.36,164.70 581.00,163.24 581.64,161.78 582.29,160.34 582.93,158.91 583.58,157.50 584.22,156.10 584.87,154.72 585.51,153.36 586.16,152.01 586.80,150.67 587.44,149.36 588.09,148.05 588.73,146.76 589.38,145.49 590.02,144.23 590.67,142.99 591.31,141.76 591.96,140.55 592.60,139.36 593.24,138.18 593.89,137.01 594.53,135.86 595.18,134.73 595.82,133.60 596.47,132.50 597.11,131.40 597.76,130.33 598.40,129.27 599.04,128.22 599.69,127.18 600.33,126.16 600.98,125.15 601.62,124.16 602.27,123.18 602.91,122.21 603.56,121.25 604.20,120.31 604.84,119.39 605.49,118.47 606.13,117.57 606.78,116.68 607.42,115.81 608.07,114.94 608.71,114.09 609.36,113.24 610.00,112.41 610.64,111.60 611.29,110.80 611.93,110.01 612.58,109.22 613.22,108.46 613.87,107.70 614.51,106.95 615.16,106.21 615.80,105.49 616.44,104.77 617.09,104.07 617.73,103.38 618.38,102.70 619.02,102.03 619.67,101.37 620.31,100.72 620.96,100.08 621.60,99.45 622.24,98.83 622.89,98.22 623.53,97.63 624.18,97.04 624.82,96.47 625.47,95.90 626.11,95.34 626.76,94.79 627.40,94.25 628.04,93.72 628.69,93.20 629.33,92.69 629.98,92.19 630.62,91.70 631.27,91.22 631.91,90.75 632.56,90.29 633.20,89.84 633.84,89.39 634.49,88.96 635.13,88.53 635.78,88.11 636.42,87.70 637.07,87.30 637.71,86.91 638.36,86.53 639.00,86.16 639.64,85.80 640.29,85.44 640.93,85.09 641.58,84.75 642.22,84.42 642.87,84.10 643.51,83.79 644.16,83.49 644.80,83.19 645.44,82.91 646.09,82.63 646.73,82.36 647.38,82.09 648.02,81.84 648.67,81.59 649.31,81.36 649.96,81.13 650.60,80.91 651.24,80.70 651.89,80.49 652.53,80.30 653.18,80.11 653.82,79.93 654.47,79.75 655.11,79.59 655.76,79.44 656.40,79.29 657.04,79.15 657.69,79.02 658.33,78.90 658.98,78.78 659.62,78.67 660.27,78.57 660.91,78.48 661.56,78.40 662.20,78.32 662.84,78.26 663.49,78.20 664.13,78.15 664.78,78.10 665.42,78.07 666.07,78.04 666.71,78.02 667.36,78.01 668.00,78.00 668.64,78.01 669.29,78.02 669.93,78.04 670.58,78.07 671.22,78.10 671.87,78.15 672.51,78.20 673.16,78.26 673.80,78.32 674.44,78.40 675.09,78.48 675.73,78.58 676.38,78.68 677.02,78.78 677.67,78.90 678.31,79.02 678.96,79.15 679.60,79.29 680.24,79.44 680.89,79.59 681.53,79.76 682.18,79.93 682.82,80.11 683.47,80.30 684.11,80.50 684.76,80.70 685.40,80.91 686.04,81.13 686.69,81.36 687.33,81.59 687.98,81.84 688.62,82.10 689.27,82.36 689.91,82.63 690.56,82.91 691.20,83.20 691.84,83.49 692.49,83.79 693.13,84.11 693.78,84.42 694.42,84.76 695.07,85.10 695.71,85.44 696.36,85.80 697.00,86.16 697.64,86.54 698.29,86.92 698.93,87.31 699.58,87.71 700.22,88.11 700.87,88.53 701.51,88.96 702.16,89.40 702.80,89.84 703.44,90.30 704.09,90.76 704.73,91.23 705.38,91.71 706.02,92.20 706.67,92.70 707.31,93.21 707.96,93.73 708.60,94.26 709.24,94.80 709.89,95.35 710.53,95.91 711.18,96.48 711.82,97.05 712.47,97.64 713.11,98.24 713.76,98.85 714.40,99.47 715.04,100.10 715.69,100.73 716.33,101.38 716.98,102.04 717.62,102.71 718.27,103.39 718.91,104.08 719.56,104.79 720.20,105.50 720.84,106.23 721.49,106.97 722.13,107.71 722.78,108.47 723.42,109.24 724.07,110.02 724.71,110.81 725.36,111.62 726.00,112.43 726.64,113.26 727.29,114.11 727.93,114.96 728.58,115.83 729.22,116.70 729.87,117.59 730.51,118.50 731.16,119.41 731.80,120.34 732.44,121.28 733.09,122.23 733.73,123.20 734.38,124.18 735.02,125.18 735.67,126.19 736.31,127.21 736.96,128.24 737.60,129.29 738.24,130.36 738.89,131.43 739.53,132.53 740.18,133.64 740.82,134.76 741.47,135.90 742.11,137.05 742.76,138.21 743.40,139.39 744.04,140.59 744.69,141.80 745.33,143.02 745.98,144.27 746.62,145.53 747.27,146.80 747.91,148.09 748.56,149.40 749.20,150.71 749.84,152.05 750.49,153.40 751.13,154.76 751.78,156.14 752.42,157.54 753.07,158.96 753.71,160.38 754.36,161.83 755.00,163.28 755.64,164.75 756.29,166.23 756.93,167.73 757.58,169.24 758.22,170.76 758.87,172.29 759.51,173.83 760.16,175.39 760.80,176.95 761.44,178.52 762.09,180.09 762.73,181.67 763.38,183.26 764.02,184.84 764.67,186.42 765.31,188.01 765.96,189.59 766.60,191.16 767.24,192.72 767.89,194.28 768.53,195.81 769.18,197.33 769.82,198.82 770.47,200.29 771.11,201.73 771.76,203.14 772.40,204.51 773.04,205.84 773.69,207.12 774.33,208.36 774.98,209.54 775.62,210.65 776.27,211.71 776.91,212.70 777.56,213.61 778.20,214.46 778.84,215.22 779.49,215.91 780.13,216.51 780.78,217.03 781.42,217.47 782.07,217.82 782.71,218.08 783.36,218.26 784.00,218.36 784.64,218.37 785.29,218.31 785.93,218.18 786.58,217.97 787.22,217.69 787.87,217.35 788.51,216.94 789.16,216.48 789.80,215.97 790.44,215.41 791.09,214.81 791.73,214.17 792.38,213.49 793.02,212.78 793.67,212.05 794.31,211.29 794.96,210.52 795.60,209.72 796.24,208.92 796.89,208.10 797.53,207.28 798.18,206.45 798.82,205.62 799.47,204.79 800.11,203.96 800.76,203.14 801.40,202.32 802.04,201.50 802.69,200.69 803.33,199.89 803.98,199.10 804.62,198.32 805.27,197.56 805.91,196.80 806.56,196.06 807.20,195.33 807.84,194.61 808.49,193.91 809.13,193.22 809.78,192.55 810.42,191.89 811.07,191.25 811.71,190.63 812.36,190.02 813.00,189.43 813.64,188.85 814.29,188.29 814.93,187.74 815.58,187.21 816.22,186.70 816.87,186.20 817.51,185.72 818.16,185.26 818.80,184.81 819.44,184.37 820.09,183.96 820.73,183.55 821.38,183.17 822.02,182.80 822.67,182.44 823.31,182.10 823.96,181.78 824.60,181.47 825.24,181.18 825.89,180.90 826.53,180.63 827.18,180.38 827.82,180.15 828.47,179.92 829.11,179.72 829.76,179.52 830.40,179.35 831.04,179.18 831.69,179.03 832.33,178.90 832.98,178.77 833.62,178.66 834.27,178.57 834.91,178.48 835.56,178.41 836.20,178.36 836.84,178.32 837.49,178.29 838.13,178.27 838.78,178.26 839.42,178.27 840.07,178.29 840.71,178.32 841.36,178.37 842.00,178.42 842.64,178.49 843.29,178.57 843.93,178.67 844.58,178.77 845.22,178.89 845.87,179.02 846.51,179.15 847.16,179.31 847.80,179.47 848.44,179.64 849.09,179.83 849.73,180.02 850.38,180.23 851.02,180.45 851.67,180.68 852.31,180.92 852.96,181.17 853.60,181.43 854.24,181.70 854.89,181.98 855.53,182.27 856.18,182.58 856.82,182.89 857.47,183.21 858.11,183.54 858.76,183.89 859.40,184.24 860.04,184.60 860.69,184.97 861.33,185.35 861.98,185.75 862.62,186.15 863.27,186.56 863.91,186.98 864.56,187.40 865.20,187.84 865.84,188.28 866.49,188.74 867.13,189.20 867.78,189.67 868.42,190.15 869.07,190.64 869.71,191.13 870.36,191.64 871.00,192.15 871.64,192.67 872.29,193.19 872.93,193.73 873.58,194.27 874.22,194.81 874.87,195.37 875.51,195.93 876.16,196.50 876.80,197.07 877.44,197.65 878.09,198.23 878.73,198.82 879.38,199.42 880.02,200.02 880.67,200.62 881.31,201.23 881.96,201.85 882.60,202.46 883.24,203.09 883.89,203.71 884.53,204.34 885.18,204.97 885.82,205.60 886.47,206.23 887.11,206.86 887.76,207.50 888.40,208.14 889.04,208.77 889.69,209.41 890.33,210.04 890.98,210.68 891.62,211.31 892.27,211.94 892.91,212.57 893.56,213.19 894.20,213.81 894.84,214.43 895.49,215.04 896.13,215.65 896.78,216.25 897.42,216.85 898.07,217.44 898.71,218.02 899.36,218.59 900.00,219.15 900.64,219.71 901.29,220.25 901.93,220.78 902.58,221.31 903.22,221.82 903.87,222.32 904.51,222.81 905.16,223.28 905.80,223.74 906.44,224.19 907.09,224.62 907.73,225.03 908.38,225.43 909.02,225.82 909.67,226.19 910.31,226.54 910.96,226.87 911.60,227.19 912.24,227.49 912.89,227.77 913.53,228.03 914.18,228.27 914.82,228.50 915.47,228.71 916.11,228.90 916.76,229.07 917.40,229.22 918.04,229.36 918.69,229.47 919.33,229.57 919.98,229.65 920.62,229.71 921.27,229.75 921.91,229.78 922.56,229.79 923.20,229.79 923.84,229.76 924.49,229.72 925.13,229.67 925.78,229.60 926.42,229.52 927.07,229.42 927.71,229.31 928.36,229.19 929.00,229.05 929.64,228.91 930.29,228.75 930.93,228.58 931.58,228.40 932.22,228.21 932.87,228.01 933.51,227.80 934.16,227.59 934.80,227.36 935.44,227.13 936.09,226.90 936.73,226.66 937.38,226.41 938.02,226.15 938.67,225.90 939.31,225.64 939.96,225.37 940.60,225.10 941.24,224.83 941.89,224.56 942.53,224.28 943.18,224.01 943.82,223.73 944.47,223.45 945.11,223.17 945.76,222.90 946.40,222.62 947.04,222.34 947.69,222.06 948.33,221.79 948.98,221.52 949.62,221.25 950.27,220.98 950.91,220.71 951.56,220.45 952.20,220.18 952.84,219.93 953.49,219.67 954.13,219.42 954.78,219.17 955.42,218.93 956.07,218.69 956.71,218.45 957.36,218.22 958.00,217.99 958.64,217.77 959.29,217.55 959.93,217.33 960.58,217.13 961.22,216.92 961.87,216.72 962.51,216.53 963.16,216.34 963.80,216.16 964.44,215.98 965.09,215.81 965.73,215.64 966.38,215.48 967.02,215.33 967.67,215.18 968.31,215.04 968.96,214.90 969.60,214.77 970.24,214.64 970.89,214.52 971.53,214.41 972.18,214.30 972.82,214.20 973.47,214.10 974.11,214.01 974.76,213.93 975.40,213.85 976.04,213.78 976.69,213.72 977.33,213.66 977.98,213.60 978.62,213.56 979.27,213.52 979.91,213.48 980.56,213.45 981.20,213.43 981.84,213.42 982.49,213.41 983.13,213.40 983.78,213.41 984.42,213.42 985.07,213.43 985.71,213.45 986.36,213.48 987.00,213.51 987.64,213.55 988.29,213.60 988.93,213.65 989.58,213.71 990.22,213.77 990.87,213.84 991.51,213.92 992.16,214.00 992.80,214.09 993.44,214.18 994.09,214.28 994.73,214.39 995.38,214.50 996.02,214.62 996.67,214.74 997.31,214.87 997.96,215.01 998.60,215.15 999.24,215.30 999.89,215.45 1000.53,215.61 1001.18,215.78 1001.82,215.95 1002.47,216.13 1003.11,216.31 1003.76,216.50 1004.40,216.69 1005.04,216.89 1005.69,217.09 1006.33,217.31 1006.98,217.52 1007.62,217.75 1008.27,217.97 1008.91,218.21 1009.56,218.45 1010.20,218.69 1010.84,218.94 1011.49,219.20 1012.13,219.46 1012.78,219.73 1013.42,220.00 1014.07,220.28 1014.71,220.56 1015.36,220.85 1016.00,221.15 1016.64,221.45 1017.29,221.75 1017.93,222.06 1018.58,222.38 1019.22,222.70 1019.87,223.02 1020.51,223.35 1021.16,223.69 1021.80,224.04 1022.44,224.38 1023.09,224.74 1023.73,225.09 1024.38,225.46 1025.02,225.82 1025.67,226.20 1026.31,226.57 1026.96,226.96 1027.60,227.35 1028.24,227.74 1028.89,228.14 1029.53,228.54 1030.18,228.95 1030.82,229.36 1031.47,229.78 1032.11,230.21 1032.76,230.63 1033.40,231.07 1034.04,231.51 1034.69,231.95 1035.33,232.40 1035.98,232.85 1036.62,233.31 1037.27,233.77 1037.91,234.23 1038.56,234.70 1039.20,235.18 1039.84,235.66 1040.49,236.15 1041.13,236.64 1041.78,237.13 1042.42,237.63 1043.07,238.13 1043.71,238.64 1044.36,239.15 1045.00,239.66 1045.64,240.18 1046.29,240.71 1046.93,241.24 1047.58,241.77 1048.22,242.31 1048.87,242.85 1049.51,243.40 1050.16,243.94 1050.80,244.50 1051.44,245.05 1052.09,245.61 1052.73,246.18 1053.38,246.75 1054.02,247.32 1054.67,247.90 1055.31,248.48 1055.96,249.06 1056.60,249.65 1057.24,250.24 1057.89,250.83 1058.53,251.43 1059.18,252.03 1059.82,252.63 1060.47,253.24 1061.11,253.85 1061.76,254.46 1062.40,255.07 1063.04,255.69 1063.69,256.31 1064.33,256.93 1064.98,257.56 1065.62,258.19 1066.27,258.82 1066.91,259.45 1067.56,260.09 1068.20,260.72 1068.84,261.36 1069.49,262.00 1070.13,262.64 1070.78,263.28 1071.42,263.93 1072.07,264.58 1072.71,265.22 1073.36,265.87 1074.00,266.53 1074.64,267.17 1075.29,267.82 1075.93,268.47 1076.58,269.13 1077.22,269.78 1077.87,270.43 1078.51,271.08 1079.16,271.74 1079.80,272.39 1080.44,273.04 1081.09,273.69 1081.73,274.34 1082.38,274.98 1083.02,275.63 1083.67,276.28 1084.31,276.92 1084.96,277.56 1085.60,278.20 1086.24,278.84 1086.89,279.48 1087.53,280.11 1088.18,280.73 1088.82,281.36 1089.47,281.98 1090.11,282.60 1090.76,283.21 1091.40,283.82 1092.04,284.43 1092.69,285.03 1093.33,285.63 1093.98,286.22 1094.62,286.81 1095.27,287.39 1095.91,287.97 1096.56,288.54 1097.20,289.10 1097.84,289.66 1098.49,290.21 1099.13,290.76 1099.78,291.30 1100.42,291.82 1101.07,292.35 1101.71,292.86 1102.36,293.37 1103.00,293.87 1103.64,294.36 1104.29,294.84 1104.93,295.32 1105.58,295.78 1106.22,296.24 1106.87,296.69 1107.51,297.12 1108.16,297.55 1108.80,297.97 1109.44,298.38 1110.09,298.78 1110.73,299.17 1111.38,299.55 1112.02,299.92 1112.67,300.28 1113.31,300.63 1113.96,300.96 1114.60,301.29 1115.24,301.61 1115.89,301.92 1116.53,302.21 1117.18,302.50 1117.82,302.78 1118.47,303.05 1119.11,303.31 1119.76,303.55 1120.40,303.78 1121.04,304.01 1121.69,304.22 1122.33,304.43 1122.98,304.62 1123.62,304.81 1124.27,304.98 1124.91,305.15 1125.56,305.31 1126.20,305.46 1126.84,305.59 1127.49,305.72 1128.13,305.84 1128.78,305.95 1129.42,306.05 1130.07,306.15 1130.71,306.24 1131.36,306.32 1132.00,306.39 1132.64,306.45 1133.29,306.51 1133.93,306.55 1134.58,306.60 1135.22,306.63 1135.87,306.66 1136.51,306.68 1137.16,306.70 1137.80,306.71 1138.44,306.72 1139.09,306.72 1139.73,306.71 1140.38,306.70 1141.02,306.68 1141.67,306.66 1142.31,306.64 1142.96,306.61 1143.60,306.58 1144.24,306.54 1144.89,306.51 1145.53,306.46 1146.18,306.41 1146.82,306.36 1147.47,306.31 1148.11,306.26 1148.76,306.20 1149.40,306.14 1150.04,306.08 1150.69,306.02 1151.33,305.96 1151.98,305.89 1152.62,305.82 1153.27,305.75 1153.91,305.68 1154.56,305.61 1155.20,305.54 1155.84,305.47 1156.49,305.40 1157.13,305.33 1157.78,305.26 1158.42,305.18 1159.07,305.10 1159.71,305.03 1160.36,304.96 1161.00,304.88 1161.64,304.81 1162.29,304.74 1162.93,304.67 1163.58,304.61 1164.22,304.54 1164.87,304.47 1165.51,304.40 1166.16,304.34 1166.80,304.27 1167.44,304.21 1168.09,304.15 1168.73,304.09 1169.38,304.03 1170.02,303.98 1170.67,303.92 1171.31,303.87 1171.96,303.81 1172.60,303.76 1173.24,303.72 1173.89,303.67 1174.53,303.63 1175.18,303.59 1175.82,303.55 1176.47,303.51 1177.11,303.48 1177.76,303.45 1178.40,303.42 1179.04,303.39 1179.69,303.36 1180.33,303.34 1180.98,303.32 1181.62,303.30 1182.27,303.29 1182.91,303.28 1183.56,303.27 1184.20,303.26 1184.84,303.25 1185.49,303.25 1186.13,303.25 1186.78,303.25 1187.42,303.26 1188.07,303.27 1188.71,303.28 1189.36,303.30 1190.00,303.32 1190.64,303.34 1191.29,303.36 1191.93,303.38 1192.58,303.41 1193.22,303.44 1193.87,303.48 1194.51,303.52 1195.16,303.56 1195.80,303.60 1196.44,303.65 1197.09,303.70 1197.73,303.75 1198.38,303.80 1199.02,303.86 1199.67,303.92 1200.31,303.99 1200.96,304.06 1201.60,304.13 1202.24,304.21 1202.89,304.29 1203.53,304.36 1204.18,304.44 1204.82,304.53 1205.47,304.62 1206.11,304.71 1206.76,304.80 1207.40,304.90 1208.04,305.01 1208.69,305.11 1209.33,305.22 1209.98,305.33 1210.62,305.44 1211.27,305.56 1211.91,305.68 1212.56,305.80 1213.20,305.93 1213.84,306.06 1214.49,306.19 1215.13,306.33 1215.78,306.47 1216.42,306.61 1217.07,306.76 1217.71,306.90 1218.36,307.05 1219.00,307.21 1219.64,307.37 1220.29,307.53 1220.93,307.69 1221.58,307.86 1222.22,308.03 1222.87,308.20 1223.51,308.38 1224.16,308.56 1224.80,308.74 1225.44,308.92 1226.09,309.11 1226.73,309.31 1227.38,309.50 1228.02,309.70 1228.67,309.91 1229.31,310.11 1229.96,310.32 1230.60,310.53 1231.24,310.74 1231.89,310.96 1232.53,311.18 1233.18,311.40 1233.82,311.63 1234.47,311.86 1235.11,312.10 1235.76,312.33 1236.40,312.57 1237.04,312.81 1237.69,313.05 1238.33,313.30 1238.98,313.55 1239.62,313.81 1240.27,314.07 1240.91,314.33 1241.56,314.60 1242.20,314.86 1242.84,315.13 1243.49,315.40 1244.13,315.68 1244.78,315.96 1245.42,316.24 1246.07,316.53 1246.71,316.82 1247.36,317.12 1248.00,317.42 "/>
<text x="88.00" y="38" font-family="Segoe UI,Arial,sans-serif" font-size="28" font-weight="700" fill="#10243c">T_END_FEED_8_Hpol | POL1 | Elevacao</text>
<text x="88.00" y="58" font-family="Segoe UI,Arial,sans-serif" font-size="13" fill="#4f637b">Elevacao (graus) | Nivel relativo (dB)</text>
</svg>
