<svg xmlns="http://www.w3.org/2000/svg" width="1280" height="520" viewBox="0 0 1280 520">
<defs>
<linearGradient id="bg" x1="0" y1="0" x2="0" y2="1">
<stop offset="0%" stop-color="#f8fbff"/>
<stop offset="100%" stop-color="#f2f7fc"/>
</linearGradient>
</defs>
<rect width="100%" height="100%" fill="url(#bg)"/>
<rect x="88.00" y="78.00" width="1160.00" height="366.00" fill="#ffffff" stroke="#dbe6f2" stroke-width="1" rx="8"/>
<line x1="88.00" y1="78.00" x2="1248.00" y2="78.00" stroke="#e6edf6" stroke-width="1"/>
<text x="78.00" y="82.00" text-anchor="end" font-family="Segoe UI,Arial,sans-serif" font-size="12" fill="#5a6b80">0 dB</text>
<line x1="88.00" y1="169.50" x2="1248.00" y2="169.50" stroke="#e6edf6" stroke-width="1"/>
<text x="78.00" y="173.50" text-anchor="end" font-family="Segoe UI,Arial,sans-serif" font-size="12" fill="#5a6b80">-10 dB</text>
<line x1="88.00" y1="261.00" x2="1248.00" y2="261.00" stroke="#e6edf6" stroke-width="1"/>
<text x="78.00" y="265.00" text-anchor="end" font-family="Segoe UI,Arial,sans-serif" font-size="12" fill="#5a6b80">-20 dB</text>
<line x1="88.00" y1="352.50" x2="1248.00" y2="352.50" stroke="#e6edf6" stroke-width="1"/>
<text x="78.00" y="356.50" text-anchor="end" font-family="Segoe UI,Arial,sans-serif" font-size="12" fill="#5a6b80">-30 dB</text>
<line x1="88.00" y1="444.00" x2="1248.00" y2="444.00" stroke="#e6edf6" stroke-width="1"/>
<text x="78.00" y="448.00" text-anchor="end" font-family="Segoe UI,Arial,sans-serif" font-size="12" fill="#5a6b80">-40 dB</text>
<line x1="88.00" y1="78.00" x2="88.00" y2="444.00" stroke="#eef3f8" stroke-width="1"/>
<text x="88.00" y="466.00" text-anchor="middle" font-family="Segoe UI,Arial,sans-serif" font-size="12" fill="#5a6b80">-180</text>
<line x1="281.33" y1="78.00" x2="281.33" y2="444.00" stroke="#eef3f8" stroke-width="1"/>
<text x="281.33" y="466.00" text-anchor="middle" font-family="Segoe UI,Arial,sans-serif" font-size="12" fill="#5a6b80">-120</text>
<line x1="474.67" y1="78.00" x2="474.67" y2="444.00" stroke="#eef3f8" stroke-width="1"/>
<text x="474.67" y="466.00" text-anchor="middle" font-family="Segoe UI,Arial,sans-serif" font-size="12" fill="#5a6b80">-60</text>
<line x1="668.00" y1="78.00" x2="668.00" y2="444.00" stroke="#eef3f8" stroke-width="1"/>
<text x="668.00" y="466.00" text-anchor="middle" font-family="Segoe UI,Arial,sans-serif" font-size="12" fill="#5a6b80">0</text>
<line x1="861.33" y1="78.00" x2="861.33" y2="444.00" stroke="#eef3f8" stroke-width="1"/>
<text x="861.33" y="466.00" text-anchor="middle" font-family="Segoe UI,Arial,sans-serif" font-size="12" fill="#5a6b80">60</text>
<line x1="1054.67" y1="78.00" x2="1054.67" y2="444.00" stroke="#eef3f8" stroke-width="1"/>
<text x="1054.67" y="466.00" text-anchor="middle" font-family="Segoe UI,Arial,sans-serif" font-size="12" fill="#5a6b80">120</text>
<line x1="1248.00" y1="78.00" x2="1248.00" y2="444.00" stroke="#eef3f8" stroke-width="1"/>
<text x="1248.00" y="466.00" text-anchor="middle" font-family="Segoe UI,Arial,sans-serif" font-size="12" fill="#5a6b80">180</text>
<polyline fill="none" stroke="#0f766e" stroke-width="2.6" points="88.00,179.31 91.22,179.77 94.44,181.12 97.67,183.40 100.89,186.67 104.11,191.05 107.33,196.70 110.56,203.83 113.78,212.81 117.00,224.16 120.22,238.72 123.44,257.90 126.67,284.11 129.89,319.29 133.11,339.50 136.33,305.84 139.56,268.76 142.78,240.68 146.00,218.89 149.22,201.25 152.44,186.50 155.67,173.89 158.89,162.90 162.11,153.22 165.33,144.60 168.56,136.88 171.78,129.93 175.00,123.65 178.22,117.95 181.44,112.78 184.67,108.09 187.89,103.84 191.11,99.98 194.33,96.50 197.56,93.38 200.78,90.57 204.00,88.08 207.22,85.89 210.44,83.99 213.67,82.36 216.89,81.00 220.11,79.90 223.33,79.05 226.56,78.45 229.78,78.10 233.00,78.00 236.22,78.14 239.44,78.53 242.67,79.16 245.89,80.05 249.11,81.19 252.33,82.58 255.56,84.25 258.78,86.18 262.00,88.41 265.22,90.92 268.44,93.75 271.67,96.91 274.89,100.41 278.11,104.29 281.33,108.56 284.56,113.28 287.78,118.46 291.00,124.17 294.22,130.47 297.44,137.44 300.67,145.17 303.89,153.79 307.11,163.48 310.33,174.47 313.56,187.09 316.78,201.82 320.00,219.40 323.22,241.03 326.44,268.58 329.67,303.62 332.89,331.93 336.11,313.42 339.33,281.26 342.56,256.31 345.78,237.71 349.00,223.47 352.22,212.32 355.44,203.46 358.67,196.42 361.89,190.85 365.11,186.52 368.33,183.30 371.56,181.05 374.78,179.74 378.00,179.31 381.22,179.77 384.44,181.12 387.67,183.40 390.89,186.67 394.11,191.05 397.33,196.70 400.56,203.83 403.78,212.81 407.00,224.16 410.22,238.72 413.44,257.90 416.67,284.11 419.89,319.29 423.11,339.50 426.33,305.84 429.56,268.76 432.78,240.68 436.00,218.89 439.22,201.25 442.44,186.50 445.67,173.89 448.89,162.90 452.11,153.22 455.33,144.60 458.56,136.88 461.78,129.93 465.00,123.65 468.22,117.95 471.44,112.78 474.67,108.09 477.89,103.84 481.11,99.98 484.33,96.50 487.56,93.38 490.78,90.57 494.00,88.08 497.22,85.89 500.44,83.99 503.67,82.36 506.89,81.00 510.11,79.90 513.33,79.05 516.56,78.45 519.78,78.10 523.00,78.00 526.22,78.14 529.44,78.53 532.67,79.16 535.89,80.05 539.11,81.19 542.33,82.58 545.56,84.25 548.78,86.18 552.00,88.41 555.22,90.92 558.44,93.75 561.67,96.91 564.89,100.41 568.11,104.29 571.33,108.56 574.56,113.28 577.78,118.46 581.00,124.17 584.22,130.47 587.44,137.44 590.67,145.17 593.89,153.79 597.11,163.48 600.33,174.47 603.56,187.09 606.78,201.82 610.00,219.40 613.22,241.03 616.44,268.58 619.67,303.62 622.89,331.93 626.11,313.42 629.33,281.26 632.56,256.31 635.78,237.71 639.00,223.47 642.22,212.32 645.44,203.46 648.67,196.42 651.89,190.85 655.11,186.52 658.33,183.30 661.56,181.05 664.78,179.74 668.00,179.31 671.22,179.77 674.44,181.12 677.67,183.40 680.89,186.67 684.11,191.05 687.33,196.70 690.56,203.83 693.78,212.81 697.00,224.16 700.22,238.72 703.44,257.90 706.67,284.11 709.89,319.29 713.11,339.50 716.33,305.84 719.56,268.76 722.78,240.68 726.00,218.89 729.22,201.25 732.44,186.50 735.67,173.89 738.89,162.90 742.11,153.22 745.33,144.60 748.56,136.88 751.78,129.93 755.00,123.65 758.22,117.95 761.44,112.78 764.67,108.09 767.89,103.84 771.11,99.98 774.33,96.50 777.56,93.38 780.78,90.57 784.00,88.08 787.22,85.89 790.44,83.99 793.67,82.36 796.89,81.00 800.11,79.90 803.33,79.05 806.56,78.45 809.78,78.10 813.00,78.00 816.22,78.14 819.44,78.53 822.67,79.16 825.89,80.05 829.11,81.19 832.33,82.58 835.56,84.25 838.78,86.18 842.00,88.41 845.22,90.92 848.44,93.75 851.67,96.91 854.89,100.41 858.11,104.29 861.33,108.56 864.56,113.28 867.78,118.46 871.00,124.17 874.22,130.47 877.44,137.44 880.67,145.17 883.89,153.79 887.11,163.48 890.33,174.47 893.56,187.09 896.78,201.82 900.00,219.40 903.22,241.03 906.44,268.58 909.67,303.62 912.89,331.93 916.11,313.42 919.33,281.26 922.56,256.31 925.78,237.71 929.00,223.47 932.22,212.32 935.44,203.46 938.67,196.42 941.89,190.85 945.11,186.52 948.33,183.30 951.56,181.05 954.78,179.74 958.00,179.31 961.22,179.77 964.44,181.12 967.67,183.40 970.89,186.67 974.11,191.05 977.33,196.70 980.56,203.83 983.78,212.81 987.00,224.16 990.22,238.72 993.44,257.90 996.67,284.11 999.89,319.29 1003.11,339.50 1006.33,305.84 1009.56,268.76 1012.78,240.68 1016.00,218.89 1019.22,201.25 1022.44,186.50 1025.67,173.89 1028.89,162.90 1032.11,153.22 1035.33,144.60 1038.56,136.88 1041.78,129.93 1045.00,123.65 1048.22,117.95 1051.44,112.78 1054.67,108.09 1057.89,103.84 1061.11,99.98 1064.33,96.50 1067.56,93.38 1070.78,90.57 1074.00,88.08 1077.22,85.89 1080.44,83.99 1083.67,82.36 1086.89,81.00 1090.11,79.90 1093.33,79.05 1096.56,78.45 1099.78,78.10 1103.00,78.00 1106.22,78.14 1109.44,78.53 1112.67,79.16 1115.89,80.05 1119.11,81.19 1122.33,82.58 1125.56,84.25 1128.78,86.18 1132.00,88.41 1135.22,90.92 1138.44,93.75 1141.67,96.91 1144.89,100.41 1148.11,104.29 1151.33,108.56 1154.56,113.28 1157.78,118.46 1161.00,124.17 1164.22,130.47 1167.44,137.44 1170.67,145.17 1173.89,153.79 1177.11,163.48 1180.33,174.47 1183.56,187.09 1186.78,201.82 1190.00,219.40 1193.22,241.03 1196.44,268.58 1199.67,303.62 1202.89,331.93 1206.11,313.42 1209.33,281.26 1212.56,256.31 1215.78,237.71 1219.00,223.47 1222.22,212.32 1225.44,203.46 1228.67,196.42 1231.89,190.85 1235.11,186.52 1238.33,183.30 1241.56,181.05 1244.78,179.74 1248.00,179.31 "/>
<text x="88.00" y="38" font-family="Segoe UI,Arial,sans-serif" font-size="28" font-weight="700" fill="#10243c">T_END_FEED_8_Hpol | POL1 | Azimute</text>
<text x="88.00" y="58" font-family="Segoe UI,Arial,sans-serif" font-size="13" fill="#4f637b">Azimute (graus) | Nivel relativo (dB)</text>
</svg>
