#
mtllib Circle1.mtl
usemtl ff8faf8f
v 3.559146e+01 -5.464146e+01 -2.246000e+02
v 3.765113e+01 -5.452979e+01 -2.246000e+02
v 3.559146e+01 -3.559146e+01 -2.246000e+02
v 3.968665e+01 -5.419608e+01 -2.246000e+02
v 4.167416e+01 -5.364425e+01 -2.246000e+02
vn 0.000000 0.000000 1.000000
vn 0.000000 0.000000 1.000000
vn 0.000000 0.000000 1.000000
vn 0.000000 0.000000 1.000000
vn 0.000000 0.000000 1.000000
f -5//-5 -4//-4 -3//-3
f -3//-3 -4//-4 -2//-2
f -3//-3 -2//-2 -1//-1
v 4.167416e+01 -5.364425e+01 -2.246000e+02
v 4.359035e+01 -5.288077e+01 -2.246000e+02
v 3.559146e+01 -3.559146e+01 -2.246000e+02
v 4.541276e+01 -5.191459e+01 -2.246000e+02
v 4.712003e+01 -5.075703e+01 -2.246000e+02
vn 0.000000 0.000000 1.000000
vn 0.000000 0.000000 1.000000
vn 0.000000 0.000000 1.000000
vn 0.000000 0.000000 1.000000
vn 0.000000 0.000000 1.000000
f -5//-5 -4//-4 -3//-3
f -3//-3 -4//-4 -2//-2
f -3//-3 -2//-2 -1//-1
v 4.712003e+01 -5.075703e+01 -2.246000e+02
v 4.869213e+01 -4.942167e+01 -2.246000e+02
v 3.559146e+01 -3.559146e+01 -2.246000e+02
v 5.011065e+01 -4.792417e+01 -2.246000e+02
v 5.135894e+01 -4.628207e+01 -2.246000e+02
vn 0.000000 0.000000 1.000000
vn 0.000000 0.000000 1.000000
vn 0.000000 0.000000 1.000000
vn 0.000000 0.000000 1.000000
vn 0.000000 0.000000 1.000000
f -5//-5 -4//-4 -3//-3
f -3//-3 -4//-4 -2//-2
f -3//-3 -2//-2 -1//-1
v 5.135894e+01 -4.628207e+01 -2.246000e+02
v 5.242236e+01 -4.451464e+01 -2.246000e+02
v 3.559146e+01 -3.559146e+01 -2.246000e+02
v 5.328847e+01 -4.264259e+01 -2.246000e+02
v 5.394709e+01 -4.068787e+01 -2.246000e+02
vn 0.000000 0.000000 1.000000
vn 0.000000 0.000000 1.000000
vn 0.000000 0.000000 1.000000
vn 0.000000 0.000000 1.000000
vn 0.000000 0.000000 1.000000
f -5//-5 -4//-4 -3//-3
f -3//-3 -4//-4 -2//-2
f -3//-3 -2//-2 -1//-1
v 5.394709e+01 -4.068787e+01 -2.246000e+02
v 5.439051e+01 -3.867341e+01 -2.246000e+02
v 3.559146e+01 -3.559146e+01 -2.246000e+02
v 5.461352e+01 -3.662281e+01 -2.246000e+02
v 5.461352e+01 -3.456012e+01 -2.246000e+02
vn 0.000000 0.000000 1.000000
vn 0.000000 0.000000 1.000000
vn 0.000000 0.000000 1.000000
vn 0.000000 0.000000 1.000000
vn 0.000000 0.000000 1.000000
f -5//-5 -4//-4 -3//-3
f -3//-3 -4//-4 -2//-2
f -3//-3 -2//-2 -1//-1
v 5.461352e+01 -3.456012e+01 -2.246000e+02
v 5.439051e+01 -3.250951e+01 -2.246000e+02
v 3.559146e+01 -3.559146e+01 -2.246000e+02
v 5.394709e+01 -3.049505e+01 -2.246000e+02
v 5.328847e+01 -2.854033e+01 -2.246000e+02
vn 0.000000 0.000000 1.000000
vn 0.000000 0.000000 1.000000
vn 0.000000 0.000000 1.000000
vn 0.000000 0.000000 1.000000
vn 0.000000 0.000000 1.000000
f -5//-5 -4//-4 -3//-3
f -3//-3 -4//-4 -2//-2
f -3//-3 -2//-2 -1//-1
v 5.328847e+01 -2.854033e+01 -2.246000e+02
v 5.242236e+01 -2.666828e+01 -2.246000e+02
v 3.559146e+01 -3.559146e+01 -2.246000e+02
v 5.135894e+01 -2.490085e+01 -2.246000e+02
v 5.011065e+01 -2.325875e+01 -2.246000e+02
vn 0.000000 0.000000 1.000000
vn 0.000000 0.000000 1.000000
vn 0.000000 0.000000 1.000000
vn 0.000000 0.000000 1.000000
vn 0.000000 0.000000 1.000000
f -5//-5 -4//-4 -3//-3
f -3//-3 -4//-4 -2//-2
f -3//-3 -2//-2 -1//-1
v 5.011065e+01 -2.325875e+01 -2.246000e+02
v 4.869213e+01 -2.176125e+01 -2.246000e+02
v 3.559146e+01 -3.559146e+01 -2.246000e+02
v 4.712003e+01 -2.042589e+01 -2.246000e+02
v 4.541276e+01 -1.926833e+01 -2.246000e+02
vn 0.000000 0.000000 1.000000
vn 0.000000 0.000000 1.000000
vn 0.000000 0.000000 1.000000
vn 0.000000 0.000000 1.000000
vn 0.000000 0.000000 1.000000
f -5//-5 -4//-4 -3//-3
f -3//-3 -4//-4 -2//-2
f -3//-3 -2//-2 -1//-1
v 4.541276e+01 -1.926833e+01 -2.246000e+02
v 4.359035e+01 -1.830215e+01 -2.246000e+02
v 3.559146e+01 -3.559146e+01 -2.246000e+02
v 4.167416e+01 -1.753867e+01 -2.246000e+02
v 3.968665e+01 -1.698684e+01 -2.246000e+02
vn 0.000000 0.000000 1.000000
vn 0.000000 0.000000 1.000000
vn 0.000000 0.000000 1.000000
vn 0.000000 0.000000 1.000000
vn 0.000000 0.000000 1.000000
f -5//-5 -4//-4 -3//-3
f -3//-3 -4//-4 -2//-2
f -3//-3 -2//-2 -1//-1
v 3.968665e+01 -1.698684e+01 -2.246000e+02
v 3.765113e+01 -1.665313e+01 -2.246000e+02
v 3.559146e+01 -3.559146e+01 -2.246000e+02
v 3.559146e+01 -1.654146e+01 -2.246000e+02
v 3.353179e+01 -1.665313e+01 -2.246000e+02
vn 0.000000 0.000000 1.000000
vn 0.000000 0.000000 1.000000
vn 0.000000 0.000000 1.000000
vn 0.000000 0.000000 1.000000
vn 0.000000 0.000000 1.000000
f -5//-5 -4//-4 -3//-3
f -3//-3 -4//-4 -2//-2
f -3//-3 -2//-2 -1//-1
v 3.353179e+01 -1.665313e+01 -2.246000e+02
v 3.149627e+01 -1.698684e+01 -2.246000e+02
v 3.559146e+01 -3.559146e+01 -2.246000e+02
v 2.950877e+01 -1.753867e+01 -2.246000e+02
v 2.759257e+01 -1.830215e+01 -2.246000e+02
vn 0.000000 0.000000 1.000000
vn 0.000000 0.000000 1.000000
vn 0.000000 0.000000 1.000000
vn 0.000000 0.000000 1.000000
vn 0.000000 0.000000 1.000000
f -5//-5 -4//-4 -3//-3
f -3//-3 -4//-4 -2//-2
f -3//-3 -2//-2 -1//-1
v 2.759257e+01 -1.830215e+01 -2.246000e+02
v 2.577016e+01 -1.926833e+01 -2.246000e+02
v 3.559146e+01 -3.559146e+01 -2.246000e+02
v 2.406289e+01 -2.042589e+01 -2.246000e+02
v 2.249079e+01 -2.176125e+01 -2.246000e+02
vn 0.000000 0.000000 1.000000
vn 0.000000 0.000000 1.000000
vn 0.000000 0.000000 1.000000
vn 0.000000 0.000000 1.000000
vn 0.000000 0.000000 1.000000
f -5//-5 -4//-4 -3//-3
f -3//-3 -4//-4 -2//-2
f -3//-3 -2//-2 -1//-1
v 2.249079e+01 -2.176125e+01 -2.246000e+02
v 2.107227e+01 -2.325875e+01 -2.246000e+02
v 3.559146e+01 -3.559146e+01 -2.246000e+02
v 1.982399e+01 -2.490085e+01 -2.246000e+02
v 1.876056e+01 -2.666828e+01 -2.246000e+02
vn 0.000000 0.000000 1.000000
vn 0.000000 0.000000 1.000000
vn 0.000000 0.000000 1.000000
vn 0.000000 0.000000 1.000000
vn 0.000000 0.000000 1.000000
f -5//-5 -4//-4 -3//-3
f -3//-3 -4//-4 -2//-2
f -3//-3 -2//-2 -1//-1
v 1.876056e+01 -2.666828e+01 -2.246000e+02
v 1.789445e+01 -2.854033e+01 -2.246000e+02
v 3.559146e+01 -3.559146e+01 -2.246000e+02
v 1.723583e+01 -3.049505e+01 -2.246000e+02
v 1.679242e+01 -3.250951e+01 -2.246000e+02
vn 0.000000 0.000000 1.000000
vn 0.000000 0.000000 1.000000
vn 0.000000 0.000000 1.000000
vn 0.000000 0.000000 1.000000
vn 0.000000 0.000000 1.000000
f -5//-5 -4//-4 -3//-3
f -3//-3 -4//-4 -2//-2
f -3//-3 -2//-2 -1//-1
v 1.679242e+01 -3.250951e+01 -2.246000e+02
v 1.656940e+01 -3.456012e+01 -2.246000e+02
v 3.559146e+01 -3.559146e+01 -2.246000e+02
v 1.656940e+01 -3.662281e+01 -2.246000e+02
v 1.679242e+01 -3.867341e+01 -2.246000e+02
vn 0.000000 0.000000 1.000000
vn 0.000000 0.000000 1.000000
vn 0.000000 0.000000 1.000000
vn 0.000000 0.000000 1.000000
vn 0.000000 0.000000 1.000000
f -5//-5 -4//-4 -3//-3
f -3//-3 -4//-4 -2//-2
f -3//-3 -2//-2 -1//-1
v 1.679242e+01 -3.867341e+01 -2.246000e+02
v 1.723583e+01 -4.068787e+01 -2.246000e+02
v 3.559146e+01 -3.559146e+01 -2.246000e+02
v 1.789445e+01 -4.264259e+01 -2.246000e+02
v 1.876056e+01 -4.451464e+01 -2.246000e+02
vn 0.000000 0.000000 1.000000
vn 0.000000 0.000000 1.000000
vn 0.000000 0.000000 1.000000
vn 0.000000 0.000000 1.000000
vn 0.000000 0.000000 1.000000
f -5//-5 -4//-4 -3//-3
f -3//-3 -4//-4 -2//-2
f -3//-3 -2//-2 -1//-1
v 1.876056e+01 -4.451464e+01 -2.246000e+02
v 1.982399e+01 -4.628207e+01 -2.246000e+02
v 3.559146e+01 -3.559146e+01 -2.246000e+02
v 2.107227e+01 -4.792417e+01 -2.246000e+02
v 2.249079e+01 -4.942167e+01 -2.246000e+02
vn 0.000000 0.000000 1.000000
vn 0.000000 0.000000 1.000000
vn 0.000000 0.000000 1.000000
vn 0.000000 0.000000 1.000000
vn 0.000000 0.000000 1.000000
f -5//-5 -4//-4 -3//-3
f -3//-3 -4//-4 -2//-2
f -3//-3 -2//-2 -1//-1
v 2.249079e+01 -4.942167e+01 -2.246000e+02
v 2.406289e+01 -5.075703e+01 -2.246000e+02
v 3.559146e+01 -3.559146e+01 -2.246000e+02
v 2.577016e+01 -5.191459e+01 -2.246000e+02
v 2.759257e+01 -5.288077e+01 -2.246000e+02
vn 0.000000 0.000000 1.000000
vn 0.000000 0.000000 1.000000
vn 0.000000 0.000000 1.000000
vn 0.000000 0.000000 1.000000
vn 0.000000 0.000000 1.000000
f -5//-5 -4//-4 -3//-3
f -3//-3 -4//-4 -2//-2
f -3//-3 -2//-2 -1//-1
v 2.759257e+01 -5.288077e+01 -2.246000e+02
v 2.950877e+01 -5.364425e+01 -2.246000e+02
v 3.559146e+01 -3.559146e+01 -2.246000e+02
v 3.149627e+01 -5.419608e+01 -2.246000e+02
v 3.353179e+01 -5.452979e+01 -2.246000e+02
vn 0.000000 0.000000 1.000000
vn 0.000000 0.000000 1.000000
vn 0.000000 0.000000 1.000000
vn 0.000000 0.000000 1.000000
vn 0.000000 0.000000 1.000000
f -5//-5 -4//-4 -3//-3
f -3//-3 -4//-4 -2//-2
f -3//-3 -2//-2 -1//-1
v 3.559146e+01 -3.559146e+01 -2.246000e+02
v 3.353179e+01 -5.452979e+01 -2.246000e+02
v 3.559146e+01 -5.464146e+01 -2.246000e+02
vn 0.000000 0.000000 1.000000
vn 0.000000 0.000000 1.000000
vn 0.000000 0.000000 1.000000
f -3//-3 -2//-2 -1//-1
