#
mtllib Rectangle1.mtl
usemtl ff8faf8f
v 4.052197e+01 1.719057e+01 -2.119000e+02
v 3.559146e+01 1.654146e+01 -2.119000e+02
v 3.559146e+01 -1.654146e+01 -2.119000e+02
v 3.066096e+01 1.719057e+01 -2.119000e+02
v 3.066096e+01 -1.719057e+01 -2.119000e+02
v 2.606646e+01 -1.909368e+01 -2.119000e+02
vn 0.000000 0.000000 1.000000
vn 0.000000 0.000000 1.000000
vn 0.000000 0.000000 1.000000
vn 0.000000 0.000000 1.000000
vn 0.000000 0.000000 1.000000
vn 0.000000 0.000000 1.000000
f -6//-6 -5//-5 -4//-4
f -4//-4 -5//-5 -3//-3
f -4//-4 -3//-3 -2//-2
f -2//-2 -3//-3 -1//-1
v 5.399235e+01 4.052197e+01 -2.119000e+02
v 5.464146e+01 3.559146e+01 -2.119000e+02
v 4.500000e+02 4.500000e+02 -2.119000e+02
v 5.399235e+01 3.066096e+01 -2.119000e+02
v 5.399235e+01 -3.066096e+01 -2.119000e+02
v 5.208924e+01 2.606646e+01 -2.119000e+02
v 4.906184e+01 2.212108e+01 -2.119000e+02
vn 0.000000 0.000000 1.000000
vn 0.000000 0.000000 1.000000
vn 0.000000 0.000000 1.000000
vn 0.000000 0.000000 1.000000
vn 0.000000 0.000000 1.000000
vn 0.000000 0.000000 1.000000
vn 0.000000 0.000000 1.000000
f -7//-7 -6//-6 -5//-5
f -5//-5 -6//-6 -4//-4
f -5//-5 -4//-4 -3//-3
f -3//-3 -4//-4 -2//-2
f -3//-3 -2//-2 -1//-1
v 3.559146e+01 -1.654146e+01 -2.119000e+02
v 4.052197e+01 -1.719057e+01 -2.119000e+02
v 4.052197e+01 1.719057e+01 -2.119000e+02
v 4.511646e+01 -1.909368e+01 -2.119000e+02
v 4.906184e+01 -2.212108e+01 -2.119000e+02
vn 0.000000 0.000000 1.000000
vn 0.000000 0.000000 1.000000
vn 0.000000 0.000000 1.000000
vn 0.000000 0.000000 1.000000
vn 0.000000 0.000000 1.000000
f -5//-5 -4//-4 -3//-3
f -3//-3 -4//-4 -2//-2
f -3//-3 -2//-2 -1//-1
v 2.606646e+01 5.208924e+01 -2.119000e+02
v 3.066096e+01 5.399235e+01 -2.119000e+02
v -4.500000e+02 4.500000e+02 -2.119000e+02
v 3.559146e+01 5.464146e+01 -2.119000e+02
v 4.500000e+02 4.500000e+02 -2.119000e+02
v 4.052197e+01 5.399235e+01 -2.119000e+02
v 4.511646e+01 5.208924e+01 -2.119000e+02
vn 0.000000 0.000000 1.000000
vn 0.000000 0.000000 1.000000
vn 0.000000 0.000000 1.000000
vn 0.000000 0.000000 1.000000
vn 0.000000 0.000000 1.000000
vn 0.000000 0.000000 1.000000
vn 0.000000 0.000000 1.000000
f -7//-7 -6//-6 -5//-5
f -5//-5 -6//-6 -4//-4
f -5//-5 -4//-4 -3//-3
f -3//-3 -4//-4 -2//-2
f -3//-3 -2//-2 -1//-1
v 1.719057e+01 4.052197e+01 -2.119000e+02
v 1.909368e+01 4.511646e+01 -2.119000e+02
v -4.500000e+02 4.500000e+02 -2.119000e+02
v 2.212108e+01 4.906184e+01 -2.119000e+02
v 2.606646e+01 5.208924e+01 -2.119000e+02
vn 0.000000 0.000000 1.000000
vn 0.000000 0.000000 1.000000
vn 0.000000 0.000000 1.000000
vn 0.000000 0.000000 1.000000
vn 0.000000 0.000000 1.000000
f -5//-5 -4//-4 -3//-3
f -3//-3 -4//-4 -2//-2
f -3//-3 -2//-2 -1//-1
v 1.719057e+01 -3.066096e+01 -2.119000e+02
v 1.909368e+01 -2.606646e+01 -2.119000e+02
v 3.066096e+01 1.719057e+01 -2.119000e+02
v 2.212108e+01 -2.212108e+01 -2.119000e+02
v 2.606646e+01 -1.909368e+01 -2.119000e+02
vn 0.000000 0.000000 1.000000
vn 0.000000 0.000000 1.000000
vn 0.000000 0.000000 1.000000
vn 0.000000 0.000000 1.000000
vn 0.000000 0.000000 1.000000
f -5//-5 -4//-4 -3//-3
f -3//-3 -4//-4 -2//-2
f -3//-3 -2//-2 -1//-1
v 1.719057e+01 4.052197e+01 -2.119000e+02
v -4.500000e+02 4.500000e+02 -2.119000e+02
v 1.654146e+01 3.559146e+01 -2.119000e+02
v -4.500000e+02 -4.500000e+02 -2.119000e+02
v 1.719057e+01 3.066096e+01 -2.119000e+02
v 1.909368e+01 2.606646e+01 -2.119000e+02
vn 0.000000 0.000000 1.000000
vn 0.000000 0.000000 1.000000
vn 0.000000 0.000000 1.000000
vn 0.000000 0.000000 1.000000
vn 0.000000 0.000000 1.000000
vn 0.000000 0.000000 1.000000
f -6//-6 -5//-5 -4//-4
f -4//-4 -5//-5 -3//-3
f -4//-4 -3//-3 -2//-2
f -2//-2 -3//-3 -1//-1
v 4.052197e+01 1.719057e+01 -2.119000e+02
v 5.208924e+01 -2.606646e+01 -2.119000e+02
v 4.511646e+01 1.909368e+01 -2.119000e+02
v 5.399235e+01 -3.066096e+01 -2.119000e+02
v 4.906184e+01 2.212108e+01 -2.119000e+02
vn 0.000000 0.000000 1.000000
vn 0.000000 0.000000 1.000000
vn 0.000000 0.000000 1.000000
vn 0.000000 0.000000 1.000000
vn 0.000000 0.000000 1.000000
f -5//-5 -4//-4 -3//-3
f -3//-3 -4//-4 -2//-2
f -3//-3 -2//-2 -1//-1
v 2.212108e+01 2.212108e+01 -2.119000e+02
v -4.500000e+02 -4.500000e+02 -2.119000e+02
v 2.606646e+01 1.909368e+01 -2.119000e+02
v 1.719057e+01 -3.066096e+01 -2.119000e+02
v 3.066096e+01 1.719057e+01 -2.119000e+02
vn 0.000000 0.000000 1.000000
vn 0.000000 0.000000 1.000000
vn 0.000000 0.000000 1.000000
vn 0.000000 0.000000 1.000000
vn 0.000000 0.000000 1.000000
f -5//-5 -4//-4 -3//-3
f -3//-3 -4//-4 -2//-2
f -3//-3 -2//-2 -1//-1
v 1.909368e+01 -4.511646e+01 -2.119000e+02
v 1.719057e+01 -4.052197e+01 -2.119000e+02
v -4.500000e+02 -4.500000e+02 -2.119000e+02
v 1.654146e+01 -3.559146e+01 -2.119000e+02
v 1.719057e+01 -3.066096e+01 -2.119000e+02
vn 0.000000 0.000000 1.000000
vn 0.000000 0.000000 1.000000
vn 0.000000 0.000000 1.000000
vn 0.000000 0.000000 1.000000
vn 0.000000 0.000000 1.000000
f -5//-5 -4//-4 -3//-3
f -3//-3 -4//-4 -2//-2
f -3//-3 -2//-2 -1//-1
v 3.066096e+01 -5.399235e+01 -2.119000e+02
v 2.606646e+01 -5.208924e+01 -2.119000e+02
v -4.500000e+02 -4.500000e+02 -2.119000e+02
v 2.212108e+01 -4.906184e+01 -2.119000e+02
v 1.909368e+01 -4.511646e+01 -2.119000e+02
vn 0.000000 0.000000 1.000000
vn 0.000000 0.000000 1.000000
vn 0.000000 0.000000 1.000000
vn 0.000000 0.000000 1.000000
vn 0.000000 0.000000 1.000000
f -5//-5 -4//-4 -3//-3
f -3//-3 -4//-4 -2//-2
f -3//-3 -2//-2 -1//-1
v -4.500000e+02 -4.500000e+02 -2.119000e+02
v 2.212108e+01 2.212108e+01 -2.119000e+02
v 1.909368e+01 2.606646e+01 -2.119000e+02
vn 0.000000 0.000000 1.000000
vn 0.000000 0.000000 1.000000
vn 0.000000 0.000000 1.000000
f -3//-3 -2//-2 -1//-1
v 5.399235e+01 -4.052197e+01 -2.119000e+02
v 4.500000e+02 -4.500000e+02 -2.119000e+02
v 5.464146e+01 -3.559146e+01 -2.119000e+02
v 4.500000e+02 4.500000e+02 -2.119000e+02
v 5.399235e+01 -3.066096e+01 -2.119000e+02
vn 0.000000 0.000000 1.000000
vn 0.000000 0.000000 1.000000
vn 0.000000 0.000000 1.000000
vn 0.000000 0.000000 1.000000
vn 0.000000 0.000000 1.000000
f -5//-5 -4//-4 -3//-3
f -3//-3 -4//-4 -2//-2
f -3//-3 -2//-2 -1//-1
v 4.052197e+01 1.719057e+01 -2.119000e+02
v 4.906184e+01 -2.212108e+01 -2.119000e+02
v 5.208924e+01 -2.606646e+01 -2.119000e+02
vn 0.000000 0.000000 1.000000
vn 0.000000 0.000000 1.000000
vn 0.000000 0.000000 1.000000
f -3//-3 -2//-2 -1//-1
v 5.399235e+01 -4.052197e+01 -2.119000e+02
v 5.208924e+01 -4.511646e+01 -2.119000e+02
v 4.500000e+02 -4.500000e+02 -2.119000e+02
v 4.906184e+01 -4.906184e+01 -2.119000e+02
v 4.511646e+01 -5.208924e+01 -2.119000e+02
vn 0.000000 0.000000 1.000000
vn 0.000000 0.000000 1.000000
vn 0.000000 0.000000 1.000000
vn 0.000000 0.000000 1.000000
vn 0.000000 0.000000 1.000000
f -5//-5 -4//-4 -3//-3
f -3//-3 -4//-4 -2//-2
f -3//-3 -2//-2 -1//-1
v 4.511646e+01 -5.208924e+01 -2.119000e+02
v 4.052197e+01 -5.399235e+01 -2.119000e+02
v 4.500000e+02 -4.500000e+02 -2.119000e+02
v 3.559146e+01 -5.464146e+01 -2.119000e+02
v -4.500000e+02 -4.500000e+02 -2.119000e+02
v 3.066096e+01 -5.399235e+01 -2.119000e+02
vn 0.000000 0.000000 1.000000
vn 0.000000 0.000000 1.000000
vn 0.000000 0.000000 1.000000
vn 0.000000 0.000000 1.000000
vn 0.000000 0.000000 1.000000
vn 0.000000 0.000000 1.000000
f -6//-6 -5//-5 -4//-4
f -4//-4 -5//-5 -3//-3
f -4//-4 -3//-3 -2//-2
f -2//-2 -3//-3 -1//-1
v 4.511646e+01 5.208924e+01 -2.119000e+02
v 4.906184e+01 4.906184e+01 -2.119000e+02
v 4.500000e+02 4.500000e+02 -2.119000e+02
v 5.208924e+01 4.511646e+01 -2.119000e+02
v 5.399235e+01 4.052197e+01 -2.119000e+02
vn 0.000000 0.000000 1.000000
vn 0.000000 0.000000 1.000000
vn 0.000000 0.000000 1.000000
vn 0.000000 0.000000 1.000000
vn 0.000000 0.000000 1.000000
f -5//-5 -4//-4 -3//-3
f -3//-3 -4//-4 -2//-2
f -3//-3 -2//-2 -1//-1
