#
mtllib transformador.mtl
usemtl ff0000ff
v 2.061857e+01 -5.201593e+01 0.000000e+00
v 3.559146e+01 -8.059146e+01 0.000000e+00
v 1.569646e+01 -4.549800e+01 0.000000e+00
v 1.336646e+01 -2.351915e+02 0.000000e+00
v 1.346127e+01 -3.764212e+01 0.000000e+00
v 1.336646e+01 -3.701646e+01 0.000000e+00
v 1.340947e+01 -3.697345e+01 0.000000e+00
vn -0.000000 0.000000 -1.000000
vn -0.000000 0.000000 -1.000000
vn -0.000000 0.000000 -1.000000
vn -0.000000 0.000000 -1.000000
vn -0.000000 0.000000 -1.000000
vn -0.000000 0.000000 -1.000000
vn -0.000000 0.000000 -1.000000
f -7//-7 -6//-6 -5//-5
f -5//-5 -6//-6 -4//-4
f -5//-5 -4//-4 -3//-3
f -3//-3 -4//-4 -2//-2
f -3//-3 -2//-2 -1//-1
v 3.697345e+01 -1.340947e+01 0.000000e+00
v 3.701646e+01 -1.336646e+01 0.000000e+00
v 3.967529e+01 -1.374488e+01 0.000000e+00
v 2.351915e+02 -1.336646e+01 0.000000e+00
v 4.729142e+01 -1.669538e+01 0.000000e+00
v 8.059146e+01 -3.559146e+01 0.000000e+00
v 5.332739e+01 -2.219791e+01 0.000000e+00
v 5.696804e+01 -2.950930e+01 0.000000e+00
vn -0.000000 0.000000 -1.000000
vn -0.000000 0.000000 -1.000000
vn -0.000000 0.000000 -1.000000
vn -0.000000 0.000000 -1.000000
vn -0.000000 0.000000 -1.000000
vn -0.000000 0.000000 -1.000000
vn -0.000000 0.000000 -1.000000
vn -0.000000 0.000000 -1.000000
f -8//-8 -7//-7 -6//-6
f -6//-6 -7//-7 -5//-5
f -6//-6 -5//-5 -4//-4
f -4//-4 -5//-5 -3//-3
f -4//-4 -3//-3 -2//-2
f -2//-2 -3//-3 -1//-1
v 3.559146e+01 -5.781646e+01 0.000000e+00
v 4.362006e+01 -5.631565e+01 0.000000e+00
v 3.559146e+01 -8.059146e+01 0.000000e+00
v 5.056435e+01 -5.201593e+01 0.000000e+00
v 8.059146e+01 -3.559146e+01 0.000000e+00
v 5.548647e+01 -4.549800e+01 0.000000e+00
v 5.772165e+01 -3.764212e+01 0.000000e+00
vn -0.000000 0.000000 -1.000000
vn -0.000000 0.000000 -1.000000
vn -0.000000 0.000000 -1.000000
vn -0.000000 0.000000 -1.000000
vn -0.000000 0.000000 -1.000000
vn -0.000000 0.000000 -1.000000
vn -0.000000 0.000000 -1.000000
f -7//-7 -6//-6 -5//-5
f -5//-5 -6//-6 -4//-4
f -5//-5 -4//-4 -3//-3
f -3//-3 -4//-4 -2//-2
f -3//-3 -2//-2 -1//-1
v 2.061857e+01 -5.201593e+01 0.000000e+00
v 2.756286e+01 -5.631565e+01 0.000000e+00
v 3.559146e+01 -8.059146e+01 0.000000e+00
v 3.559146e+01 -5.781646e+01 0.000000e+00
vn -0.000000 0.000000 -1.000000
vn -0.000000 0.000000 -1.000000
vn -0.000000 0.000000 -1.000000
vn -0.000000 0.000000 -1.000000
f -4//-4 -3//-3 -2//-2
f -2//-2 -3//-3 -1//-1
v 2.351915e+02 -1.451915e+02 0.000000e+00
v 1.451915e+02 -2.351915e+02 0.000000e+00
v 1.197915e+02 -2.097915e+02 0.000000e+00
v 1.336646e+01 -2.351915e+02 0.000000e+00
v 3.559146e+01 -2.097915e+02 0.000000e+00
v 3.559146e+01 -8.059146e+01 0.000000e+00
vn -0.000000 0.000000 -1.000000
vn -0.000000 0.000000 -1.000000
vn -0.000000 0.000000 -1.000000
vn -0.000000 0.000000 -1.000000
vn -0.000000 0.000000 -1.000000
vn -0.000000 0.000000 -1.000000
f -6//-6 -5//-5 -4//-4
f -4//-4 -5//-5 -3//-3
f -4//-4 -3//-3 -2//-2
f -2//-2 -3//-3 -1//-1
v 2.097915e+02 -3.559146e+01 0.000000e+00
v 2.351915e+02 -1.336646e+01 0.000000e+00
v 2.097915e+02 -1.197915e+02 0.000000e+00
v 2.351915e+02 -1.451915e+02 0.000000e+00
v 1.197915e+02 -2.097915e+02 0.000000e+00
vn -0.000000 0.000000 -1.000000
vn -0.000000 0.000000 -1.000000
vn -0.000000 0.000000 -1.000000
vn -0.000000 0.000000 -1.000000
vn -0.000000 0.000000 -1.000000
f -5//-5 -4//-4 -3//-3
f -3//-3 -4//-4 -2//-2
f -3//-3 -2//-2 -1//-1
v 8.059146e+01 -3.559146e+01 0.000000e+00
v 2.351915e+02 -1.336646e+01 0.000000e+00
v 2.097915e+02 -3.559146e+01 0.000000e+00
vn -0.000000 0.000000 -1.000000
vn -0.000000 0.000000 -1.000000
vn -0.000000 0.000000 -1.000000
f -3//-3 -2//-2 -1//-1
v 8.059146e+01 -3.559146e+01 0.000000e+00
v 5.772165e+01 -3.764212e+01 0.000000e+00
v 5.696804e+01 -2.950930e+01 0.000000e+00
vn -0.000000 0.000000 -1.000000
vn -0.000000 0.000000 -1.000000
vn -0.000000 0.000000 -1.000000
f -3//-3 -2//-2 -1//-1
v 1.336646e+01 -3.701646e+01 0.000000e+00
v 1.336646e+01 -2.351915e+02 0.000000e+00
v 1.336646e+01 -3.701646e+01 2.540000e+01
v 1.336646e+01 -2.351915e+02 2.540000e+01
vn -1.000000 -0.000000 -0.000000
vn -1.000000 -0.000000 -0.000000
vn -1.000000 -0.000000 -0.000000
vn -1.000000 -0.000000 -0.000000
f -4//-4 -3//-3 -2//-2
f -2//-2 -3//-3 -1//-1
v 3.701646e+01 -1.336646e+01 2.540000e+01
v 2.351915e+02 -1.336646e+01 2.540000e+01
v 3.701646e+01 -1.336646e+01 0.000000e+00
v 2.351915e+02 -1.336646e+01 0.000000e+00
vn -0.000000 1.000000 -0.000000
vn -0.000000 1.000000 -0.000000
vn -0.000000 1.000000 -0.000000
vn -0.000000 1.000000 -0.000000
f -4//-4 -3//-3 -2//-2
f -2//-2 -3//-3 -1//-1
v 2.351915e+02 -1.451915e+02 0.000000e+00
v 2.351915e+02 -1.336646e+01 0.000000e+00
v 2.351915e+02 -1.451915e+02 2.540000e+01
v 2.351915e+02 -1.336646e+01 2.540000e+01
vn 1.000000 0.000000 0.000000
vn 1.000000 0.000000 0.000000
vn 1.000000 0.000000 0.000000
vn 1.000000 0.000000 0.000000
f -4//-4 -3//-3 -2//-2
f -2//-2 -3//-3 -1//-1
v 1.451915e+02 -2.351915e+02 2.540000e+01
v 1.336646e+01 -2.351915e+02 2.540000e+01
v 1.451915e+02 -2.351915e+02 0.000000e+00
v 1.336646e+01 -2.351915e+02 0.000000e+00
vn 0.000000 -1.000000 0.000000
vn 0.000000 -1.000000 0.000000
vn 0.000000 -1.000000 0.000000
vn 0.000000 -1.000000 0.000000
f -4//-4 -3//-3 -2//-2
f -2//-2 -3//-3 -1//-1
v 3.967529e+01 -1.374488e+01 -2.246000e+02
v 3.150763e+01 -1.374488e+01 -2.246000e+02
v 3.697345e+01 -1.340947e+01 0.000000e+00
v 3.150763e+01 -1.374488e+01 2.540000e+01
v 3.697345e+01 -1.340947e+01 2.540000e+01
vn 0.183750 0.982973 0.000000
vn -0.183750 0.982973 0.000000
vn 0.062182 0.998065 0.000000
vn -0.183750 0.982973 0.000000
vn 0.062182 0.998065 0.000000
f -5//-5 -4//-4 -3//-3
f -3//-3 -4//-4 -2//-2
f -3//-3 -2//-2 -1//-1
v 3.150763e+01 -1.374488e+01 2.540000e+01
v 2.389151e+01 -1.669538e+01 -2.246000e+02
v 2.389151e+01 -1.669538e+01 2.540000e+01
v 1.785553e+01 -2.219791e+01 -2.246000e+02
v 1.785553e+01 -2.219791e+01 2.540000e+01
v 1.421489e+01 -2.950930e+01 -2.246000e+02
v 1.421489e+01 -2.950930e+01 2.540000e+01
v 1.340947e+01 -3.697345e+01 0.000000e+00
v 1.340947e+01 -3.697345e+01 2.540000e+01
vn -0.183750 0.982973 0.000000
vn -0.526432 0.850217 0.000000
vn -0.526432 0.850217 0.000000
vn -0.798017 0.602635 0.000000
vn -0.798017 0.602635 0.000000
vn -0.961826 0.273663 0.000000
vn -0.961826 0.273663 0.000000
vn -0.998065 -0.062182 -0.000000
vn -0.998065 -0.062182 -0.000000
f -9//-9 -8//-8 -7//-7
f -7//-7 -8//-8 -6//-6
f -7//-7 -6//-6 -5//-5
f -5//-5 -6//-6 -4//-4
f -5//-5 -4//-4 -3//-3
f -3//-3 -4//-4 -2//-2
f -3//-3 -2//-2 -1//-1
v 3.697345e+01 -1.340947e+01 0.000000e+00
v 3.967529e+01 -1.374488e+01 0.000000e+00
v 3.967529e+01 -1.374488e+01 -2.246000e+02
v 4.729142e+01 -1.669538e+01 0.000000e+00
v 4.729142e+01 -1.669538e+01 -2.246000e+02
v 5.332739e+01 -2.219791e+01 0.000000e+00
v 5.332739e+01 -2.219791e+01 -2.246000e+02
v 5.696804e+01 -2.950930e+01 0.000000e+00
v 5.696804e+01 -2.950930e+01 -2.246000e+02
v 5.772165e+01 -3.764212e+01 0.000000e+00
v 5.772165e+01 -3.764212e+01 -2.246000e+02
v 5.548647e+01 -4.549800e+01 0.000000e+00
v 5.548647e+01 -4.549800e+01 -2.246000e+02
v 5.056435e+01 -5.201593e+01 0.000000e+00
v 5.056435e+01 -5.201593e+01 -2.246000e+02
v 4.362006e+01 -5.631565e+01 0.000000e+00
v 4.362006e+01 -5.631565e+01 -2.246000e+02
v 3.559146e+01 -5.781646e+01 0.000000e+00
v 3.559146e+01 -5.781646e+01 -2.246000e+02
v 2.756286e+01 -5.631565e+01 0.000000e+00
v 2.756286e+01 -5.631565e+01 -2.246000e+02
v 2.061857e+01 -5.201593e+01 0.000000e+00
v 2.061857e+01 -5.201593e+01 -2.246000e+02
v 1.569646e+01 -4.549800e+01 0.000000e+00
v 1.569646e+01 -4.549800e+01 -2.246000e+02
v 1.346127e+01 -3.764212e+01 0.000000e+00
v 1.346127e+01 -3.764212e+01 -2.246000e+02
v 1.340947e+01 -3.697345e+01 0.000000e+00
v 1.421489e+01 -2.950930e+01 -2.246000e+02
vn 0.062182 0.998065 0.000000
vn 0.183750 0.982973 0.000000
vn 0.183750 0.982973 0.000000
vn 0.526432 0.850217 0.000000
vn 0.526432 0.850217 0.000000
vn 0.798017 0.602635 0.000000
vn 0.798017 0.602635 0.000000
vn 0.961826 0.273663 0.000000
vn 0.961826 0.273663 0.000000
vn 0.995734 -0.092268 0.000000
vn 0.995734 -0.092268 0.000000
vn 0.895163 -0.445738 0.000000
vn 0.895163 -0.445738 0.000000
vn 0.673696 -0.739009 0.000000
vn 0.673696 -0.739009 0.000000
vn 0.361242 -0.932472 0.000000
vn 0.361242 -0.932472 0.000000
vn 0.000000 -1.000000 0.000000
vn 0.000000 -1.000000 0.000000
vn -0.361242 -0.932472 0.000000
vn -0.361242 -0.932472 0.000000
vn -0.673696 -0.739009 0.000000
vn -0.673696 -0.739009 0.000000
vn -0.895163 -0.445738 0.000000
vn -0.895163 -0.445738 0.000000
vn -0.995734 -0.092268 0.000000
vn -0.995734 -0.092268 0.000000
vn -0.998065 -0.062182 -0.000000
vn -0.961826 0.273663 0.000000
f -29//-29 -28//-28 -27//-27
f -27//-27 -28//-28 -26//-26
f -27//-27 -26//-26 -25//-25
f -25//-25 -26//-26 -24//-24
f -25//-25 -24//-24 -23//-23
f -23//-23 -24//-24 -22//-22
f -23//-23 -22//-22 -21//-21
f -21//-21 -22//-22 -20//-20
f -21//-21 -20//-20 -19//-19
f -19//-19 -20//-20 -18//-18
f -19//-19 -18//-18 -17//-17
f -17//-17 -18//-18 -16//-16
f -17//-17 -16//-16 -15//-15
f -15//-15 -16//-16 -14//-14
f -15//-15 -14//-14 -13//-13
f -13//-13 -14//-14 -12//-12
f -13//-13 -12//-12 -11//-11
f -11//-11 -12//-12 -10//-10
f -11//-11 -10//-10 -9//-9
f -9//-9 -10//-10 -8//-8
f -9//-9 -8//-8 -7//-7
f -7//-7 -8//-8 -6//-6
f -7//-7 -6//-6 -5//-5
f -5//-5 -6//-6 -4//-4
f -5//-5 -4//-4 -3//-3
f -3//-3 -4//-4 -2//-2
f -3//-3 -2//-2 -1//-1
v 2.389151e+01 -1.669538e+01 -2.246000e+02
v 3.150763e+01 -1.374488e+01 2.540000e+01
v 3.150763e+01 -1.374488e+01 -2.246000e+02
vn -0.526432 0.850217 0.000000
vn -0.183750 0.982973 0.000000
vn -0.183750 0.982973 0.000000
f -3//-3 -2//-2 -1//-1
v 4.362006e+01 -5.631565e+01 -2.246000e+02
v 3.559146e+01 -5.781646e+01 -2.246000e+02
v 3.559146e+01 -5.464146e+01 -2.246000e+02
v 2.756286e+01 -5.631565e+01 -2.246000e+02
v 2.784313e+01 -5.299450e+01 -2.246000e+02
v 2.061857e+01 -5.201593e+01 -2.246000e+02
v 2.143455e+01 -4.833840e+01 -2.246000e+02
v 1.569646e+01 -4.549800e+01 -2.246000e+02
v 1.747383e+01 -4.147823e+01 -2.246000e+02
v 1.346127e+01 -3.764212e+01 -2.246000e+02
v 1.664582e+01 -3.360019e+01 -2.246000e+02
v 1.421489e+01 -2.950930e+01 -2.246000e+02
v 1.909368e+01 -2.606646e+01 -2.246000e+02
v 1.785553e+01 -2.219791e+01 -2.246000e+02
v 2.439415e+01 -2.017969e+01 -2.246000e+02
v 2.389151e+01 -1.669538e+01 -2.246000e+02
v 3.163074e+01 -1.695775e+01 -2.246000e+02
v 3.150763e+01 -1.374488e+01 -2.246000e+02
v 3.955218e+01 -1.695775e+01 -2.246000e+02
v 3.967529e+01 -1.374488e+01 -2.246000e+02
v 4.729142e+01 -1.669538e+01 -2.246000e+02
vn 0.000000 0.000000 -1.000000
vn 0.000000 0.000000 -1.000000
vn 0.000000 0.000000 -1.000000
vn 0.000000 0.000000 -1.000000
vn 0.000000 0.000000 -1.000000
vn 0.000000 0.000000 -1.000000
vn 0.000000 0.000000 -1.000000
vn 0.000000 0.000000 -1.000000
vn 0.000000 0.000000 -1.000000
vn 0.000000 0.000000 -1.000000
vn 0.000000 0.000000 -1.000000
vn 0.000000 0.000000 -1.000000
vn 0.000000 0.000000 -1.000000
vn 0.000000 0.000000 -1.000000
vn 0.000000 0.000000 -1.000000
vn 0.000000 0.000000 -1.000000
vn 0.000000 0.000000 -1.000000
vn 0.000000 0.000000 -1.000000
vn 0.000000 0.000000 -1.000000
vn 0.000000 0.000000 -1.000000
vn 0.000000 0.000000 -1.000000
f -21//-21 -20//-20 -19//-19
f -19//-19 -20//-20 -18//-18
f -19//-19 -18//-18 -17//-17
f -17//-17 -18//-18 -16//-16
f -17//-17 -16//-16 -15//-15
f -15//-15 -16//-16 -14//-14
f -15//-15 -14//-14 -13//-13
f -13//-13 -14//-14 -12//-12
f -13//-13 -12//-12 -11//-11
f -11//-11 -12//-12 -10//-10
f -11//-11 -10//-10 -9//-9
f -9//-9 -10//-10 -8//-8
f -9//-9 -8//-8 -7//-7
f -7//-7 -8//-8 -6//-6
f -7//-7 -6//-6 -5//-5
f -5//-5 -6//-6 -4//-4
f -5//-5 -4//-4 -3//-3
f -3//-3 -4//-4 -2//-2
f -3//-3 -2//-2 -1//-1
v 3.955218e+01 -1.695775e+01 -2.246000e+02
v 4.729142e+01 -1.669538e+01 -2.246000e+02
v 4.678877e+01 -2.017969e+01 -2.246000e+02
v 5.332739e+01 -2.219791e+01 -2.246000e+02
v 5.208924e+01 -2.606646e+01 -2.246000e+02
v 5.696804e+01 -2.950930e+01 -2.246000e+02
v 5.453710e+01 -3.360019e+01 -2.246000e+02
v 5.772165e+01 -3.764212e+01 -2.246000e+02
v 5.370909e+01 -4.147823e+01 -2.246000e+02
v 5.548647e+01 -4.549800e+01 -2.246000e+02
v 4.974837e+01 -4.833840e+01 -2.246000e+02
v 5.056435e+01 -5.201593e+01 -2.246000e+02
v 4.333979e+01 -5.299450e+01 -2.246000e+02
v 4.362006e+01 -5.631565e+01 -2.246000e+02
v 3.559146e+01 -5.464146e+01 -2.246000e+02
vn 0.000000 0.000000 -1.000000
vn 0.000000 0.000000 -1.000000
vn 0.000000 0.000000 -1.000000
vn 0.000000 0.000000 -1.000000
vn 0.000000 0.000000 -1.000000
vn 0.000000 0.000000 -1.000000
vn 0.000000 0.000000 -1.000000
vn 0.000000 0.000000 -1.000000
vn 0.000000 0.000000 -1.000000
vn 0.000000 0.000000 -1.000000
vn 0.000000 0.000000 -1.000000
vn 0.000000 0.000000 -1.000000
vn 0.000000 0.000000 -1.000000
vn 0.000000 0.000000 -1.000000
vn 0.000000 0.000000 -1.000000
f -15//-15 -14//-14 -13//-13
f -13//-13 -14//-14 -12//-12
f -13//-13 -12//-12 -11//-11
f -11//-11 -12//-12 -10//-10
f -11//-11 -10//-10 -9//-9
f -9//-9 -10//-10 -8//-8
f -9//-9 -8//-8 -7//-7
f -7//-7 -8//-8 -6//-6
f -7//-7 -6//-6 -5//-5
f -5//-5 -6//-6 -4//-4
f -5//-5 -4//-4 -3//-3
f -3//-3 -4//-4 -2//-2
f -3//-3 -2//-2 -1//-1
v 5.453710e+01 -3.360019e+01 2.540000e+01
v 5.370909e+01 -4.147823e+01 2.540000e+01
v 8.059146e+01 -3.559146e+01 2.540000e+01
v 4.974837e+01 -4.833840e+01 2.540000e+01
v 3.559146e+01 -8.059146e+01 2.540000e+01
v 4.333979e+01 -5.299450e+01 2.540000e+01
v 3.559146e+01 -5.464146e+01 2.540000e+01
vn 0.000000 0.000000 1.000000
vn 0.000000 0.000000 1.000000
vn 0.000000 0.000000 1.000000
vn 0.000000 0.000000 1.000000
vn 0.000000 0.000000 1.000000
vn 0.000000 0.000000 1.000000
vn 0.000000 0.000000 1.000000
f -7//-7 -6//-6 -5//-5
f -5//-5 -6//-6 -4//-4
f -5//-5 -4//-4 -3//-3
f -3//-3 -4//-4 -2//-2
f -3//-3 -2//-2 -1//-1
v 8.059146e+01 -3.559146e+01 2.540000e+01
v 2.097915e+02 -3.559146e+01 2.540000e+01
v 2.351915e+02 -1.336646e+01 2.540000e+01
v 2.097915e+02 -1.197915e+02 2.540000e+01
v 2.351915e+02 -1.451915e+02 2.540000e+01
v 1.197915e+02 -2.097915e+02 2.540000e+01
v 1.451915e+02 -2.351915e+02 2.540000e+01
v 1.336646e+01 -2.351915e+02 2.540000e+01
vn 0.000000 0.000000 1.000000
vn 0.000000 0.000000 1.000000
vn 0.000000 0.000000 1.000000
vn 0.000000 0.000000 1.000000
vn 0.000000 0.000000 1.000000
vn 0.000000 0.000000 1.000000
vn 0.000000 0.000000 1.000000
vn 0.000000 0.000000 1.000000
f -8//-8 -7//-7 -6//-6
f -6//-6 -7//-7 -5//-5
f -6//-6 -5//-5 -4//-4
f -4//-4 -5//-5 -3//-3
f -4//-4 -3//-3 -2//-2
f -2//-2 -3//-3 -1//-1
v 3.150763e+01 -1.374488e+01 2.540000e+01
v 2.439415e+01 -2.017969e+01 2.540000e+01
v 3.697345e+01 -1.340947e+01 2.540000e+01
v 3.163074e+01 -1.695775e+01 2.540000e+01
v 3.955218e+01 -1.695775e+01 2.540000e+01
vn 0.000000 0.000000 1.000000
vn 0.000000 0.000000 1.000000
vn 0.000000 0.000000 1.000000
vn 0.000000 0.000000 1.000000
vn 0.000000 0.000000 1.000000
f -5//-5 -4//-4 -3//-3
f -3//-3 -4//-4 -2//-2
f -3//-3 -2//-2 -1//-1
v 2.143455e+01 -4.833840e+01 2.540000e+01
v 1.747383e+01 -4.147823e+01 2.540000e+01
v 1.340947e+01 -3.697345e+01 2.540000e+01
v 1.664582e+01 -3.360019e+01 2.540000e+01
v 1.421489e+01 -2.950930e+01 2.540000e+01
v 1.909368e+01 -2.606646e+01 2.540000e+01
v 1.785553e+01 -2.219791e+01 2.540000e+01
v 2.439415e+01 -2.017969e+01 2.540000e+01
v 2.389151e+01 -1.669538e+01 2.540000e+01
v 3.150763e+01 -1.374488e+01 2.540000e+01
vn 0.000000 0.000000 1.000000
vn 0.000000 0.000000 1.000000
vn 0.000000 0.000000 1.000000
vn 0.000000 0.000000 1.000000
vn 0.000000 0.000000 1.000000
vn 0.000000 0.000000 1.000000
vn 0.000000 0.000000 1.000000
vn 0.000000 0.000000 1.000000
vn 0.000000 0.000000 1.000000
vn 0.000000 0.000000 1.000000
f -10//-10 -9//-9 -8//-8
f -8//-8 -9//-9 -7//-7
f -8//-8 -7//-7 -6//-6
f -6//-6 -7//-7 -5//-5
f -6//-6 -5//-5 -4//-4
f -4//-4 -5//-5 -3//-3
f -4//-4 -3//-3 -2//-2
f -2//-2 -3//-3 -1//-1
v 3.697345e+01 -1.340947e+01 2.540000e+01
v 3.955218e+01 -1.695775e+01 2.540000e+01
v 3.701646e+01 -1.336646e+01 2.540000e+01
v 4.678877e+01 -2.017969e+01 2.540000e+01
v 2.351915e+02 -1.336646e+01 2.540000e+01
v 5.208924e+01 -2.606646e+01 2.540000e+01
v 5.453710e+01 -3.360019e+01 2.540000e+01
vn 0.000000 0.000000 1.000000
vn 0.000000 0.000000 1.000000
vn 0.000000 0.000000 1.000000
vn 0.000000 0.000000 1.000000
vn 0.000000 0.000000 1.000000
vn 0.000000 0.000000 1.000000
vn 0.000000 0.000000 1.000000
f -7//-7 -6//-6 -5//-5
f -5//-5 -6//-6 -4//-4
f -5//-5 -4//-4 -3//-3
f -3//-3 -4//-4 -2//-2
f -3//-3 -2//-2 -1//-1
v 3.559146e+01 -5.464146e+01 2.540000e+01
v 2.784313e+01 -5.299450e+01 2.540000e+01
v 3.559146e+01 -8.059146e+01 2.540000e+01
v 2.143455e+01 -4.833840e+01 2.540000e+01
v 1.336646e+01 -3.701646e+01 2.540000e+01
v 1.340947e+01 -3.697345e+01 2.540000e+01
vn 0.000000 0.000000 1.000000
vn 0.000000 0.000000 1.000000
vn 0.000000 0.000000 1.000000
vn 0.000000 0.000000 1.000000
vn 0.000000 0.000000 1.000000
vn 0.000000 0.000000 1.000000
f -6//-6 -5//-5 -4//-4
f -4//-4 -5//-5 -3//-3
f -4//-4 -3//-3 -2//-2
f -2//-2 -3//-3 -1//-1
v 1.197915e+02 -2.097915e+02 2.540000e+01
v 3.559146e+01 -2.097915e+02 2.540000e+01
v 1.336646e+01 -2.351915e+02 2.540000e+01
v 3.559146e+01 -8.059146e+01 2.540000e+01
v 1.336646e+01 -3.701646e+01 2.540000e+01
vn 0.000000 0.000000 1.000000
vn 0.000000 0.000000 1.000000
vn 0.000000 0.000000 1.000000
vn 0.000000 0.000000 1.000000
vn 0.000000 0.000000 1.000000
f -5//-5 -4//-4 -3//-3
f -3//-3 -4//-4 -2//-2
f -3//-3 -2//-2 -1//-1
v 8.059146e+01 -3.559146e+01 2.540000e+01
v 2.351915e+02 -1.336646e+01 2.540000e+01
v 5.453710e+01 -3.360019e+01 2.540000e+01
vn 0.000000 0.000000 1.000000
vn 0.000000 0.000000 1.000000
vn 0.000000 0.000000 1.000000
f -3//-3 -2//-2 -1//-1
v 2.351915e+02 -1.451915e+02 2.540000e+01
v 1.451915e+02 -2.351915e+02 2.540000e+01
v 2.351915e+02 -1.451915e+02 0.000000e+00
v 1.451915e+02 -2.351915e+02 0.000000e+00
vn 0.707107 -0.707107 -0.000000
vn 0.707107 -0.707107 -0.000000
vn 0.707107 -0.707107 -0.000000
vn 0.707107 -0.707107 -0.000000
f -4//-4 -3//-3 -2//-2
f -2//-2 -3//-3 -1//-1
v 1.340947e+01 -3.697345e+01 0.000000e+00
v 1.336646e+01 -3.701646e+01 0.000000e+00
v 1.340947e+01 -3.697345e+01 2.540000e+01
v 1.336646e+01 -3.701646e+01 2.540000e+01
vn -0.707107 0.707107 -0.000000
vn -0.707107 0.707107 -0.000000
vn -0.707107 0.707107 -0.000000
vn -0.707107 0.707107 -0.000000
f -4//-4 -3//-3 -2//-2
f -2//-2 -3//-3 -1//-1
v 3.701646e+01 -1.336646e+01 2.540000e+01
v 3.701646e+01 -1.336646e+01 0.000000e+00
v 3.697345e+01 -1.340947e+01 2.540000e+01
v 3.697345e+01 -1.340947e+01 0.000000e+00
vn -0.707107 0.707107 -0.000000
vn -0.707107 0.707107 -0.000000
vn -0.707107 0.707107 -0.000000
vn -0.707107 0.707107 -0.000000
f -4//-4 -3//-3 -2//-2
f -2//-2 -3//-3 -1//-1
v 4.333979e+01 -5.299450e+01 -2.246000e+02
v 4.333979e+01 -5.299450e+01 2.540000e+01
v 4.974837e+01 -4.833840e+01 -2.246000e+02
v 4.974837e+01 -4.833840e+01 2.540000e+01
v 5.370909e+01 -4.147823e+01 -2.246000e+02
v 5.370909e+01 -4.147823e+01 2.540000e+01
v 5.453710e+01 -3.360019e+01 -2.246000e+02
v 5.453710e+01 -3.360019e+01 2.540000e+01
v 5.208924e+01 -2.606646e+01 -2.246000e+02
v 5.208924e+01 -2.606646e+01 2.540000e+01
v 4.678877e+01 -2.017969e+01 -2.246000e+02
v 4.678877e+01 -2.017969e+01 2.540000e+01
v 3.955218e+01 -1.695775e+01 -2.246000e+02
v 3.955218e+01 -1.695775e+01 2.540000e+01
v 3.163074e+01 -1.695775e+01 -2.246000e+02
v 3.163074e+01 -1.695775e+01 2.540000e+01
v 2.439415e+01 -2.017969e+01 -2.246000e+02
v 2.439415e+01 -2.017969e+01 2.540000e+01
v 1.909368e+01 -2.606646e+01 -2.246000e+02
v 1.909368e+01 -2.606646e+01 2.540000e+01
v 1.664582e+01 -3.360019e+01 -2.246000e+02
v 1.664582e+01 -3.360019e+01 2.540000e+01
v 1.747383e+01 -4.147823e+01 -2.246000e+02
v 1.747383e+01 -4.147823e+01 2.540000e+01
v 2.143455e+01 -4.833840e+01 -2.246000e+02
v 2.143455e+01 -4.833840e+01 2.540000e+01
v 2.784313e+01 -5.299450e+01 -2.246000e+02
v 2.784313e+01 -5.299450e+01 2.540000e+01
v 3.559146e+01 -5.464146e+01 -2.246000e+02
v 3.559146e+01 -5.464146e+01 2.540000e+01
v 4.333979e+01 -5.299450e+01 -2.246000e+02
v 4.333979e+01 -5.299450e+01 2.540000e+01
vn -0.406737 0.913545 -0.000000
vn -0.406737 0.913545 -0.000000
vn -0.743145 0.669131 -0.000000
vn -0.743145 0.669131 -0.000000
vn -0.951057 0.309017 -0.000000
vn -0.951057 0.309017 -0.000000
vn -0.994522 -0.104528 -0.000000
vn -0.994522 -0.104528 -0.000000
vn -0.866025 -0.500000 -0.000000
vn -0.866025 -0.500000 -0.000000
vn -0.587785 -0.809017 -0.000000
vn -0.587785 -0.809017 -0.000000
vn -0.207912 -0.978148 -0.000000
vn -0.207912 -0.978148 -0.000000
vn 0.207912 -0.978148 -0.000000
vn 0.207912 -0.978148 -0.000000
vn 0.587785 -0.809017 -0.000000
vn 0.587785 -0.809017 -0.000000
vn 0.866025 -0.500000 -0.000000
vn 0.866025 -0.500000 -0.000000
vn 0.994522 -0.104528 -0.000000
vn 0.994522 -0.104528 -0.000000
vn 0.951057 0.309017 0.000000
vn 0.951057 0.309017 0.000000
vn 0.743145 0.669131 0.000000
vn 0.743145 0.669131 0.000000
vn 0.406737 0.913545 0.000000
vn 0.406737 0.913545 0.000000
vn -0.000000 1.000000 -0.000000
vn -0.000000 1.000000 -0.000000
vn -0.406737 0.913545 -0.000000
vn -0.406737 0.913545 -0.000000
f -32//-32 -31//-31 -30//-30
f -30//-30 -31//-31 -29//-29
f -30//-30 -29//-29 -28//-28
f -28//-28 -29//-29 -27//-27
f -28//-28 -27//-27 -26//-26
f -26//-26 -27//-27 -25//-25
f -26//-26 -25//-25 -24//-24
f -24//-24 -25//-25 -23//-23
f -24//-24 -23//-23 -22//-22
f -22//-22 -23//-23 -21//-21
f -22//-22 -21//-21 -20//-20
f -20//-20 -21//-21 -19//-19
f -20//-20 -19//-19 -18//-18
f -18//-18 -19//-19 -17//-17
f -18//-18 -17//-17 -16//-16
f -16//-16 -17//-17 -15//-15
f -16//-16 -15//-15 -14//-14
f -14//-14 -15//-15 -13//-13
f -14//-14 -13//-13 -12//-12
f -12//-12 -13//-13 -11//-11
f -12//-12 -11//-11 -10//-10
f -10//-10 -11//-11 -9//-9
f -10//-10 -9//-9 -8//-8
f -8//-8 -9//-9 -7//-7
f -8//-8 -7//-7 -6//-6
f -6//-6 -7//-7 -5//-5
f -6//-6 -5//-5 -4//-4
f -4//-4 -5//-5 -3//-3
f -4//-4 -3//-3 -2//-2
f -2//-2 -3//-3 -1//-1
v 3.559146e+01 -2.097915e+02 2.540000e+01
v 3.559146e+01 -2.097915e+02 0.000000e+00
v 3.559146e+01 -8.059146e+01 2.540000e+01
v 3.559146e+01 -8.059146e+01 0.000000e+00
vn 1.000000 0.000000 0.000000
vn 1.000000 0.000000 0.000000
vn 1.000000 0.000000 0.000000
vn 1.000000 0.000000 0.000000
f -4//-4 -3//-3 -2//-2
f -2//-2 -3//-3 -1//-1
v 2.097915e+02 -3.559146e+01 0.000000e+00
v 2.097915e+02 -3.559146e+01 2.540000e+01
v 8.059146e+01 -3.559146e+01 0.000000e+00
v 8.059146e+01 -3.559146e+01 2.540000e+01
vn 0.000000 -1.000000 0.000000
vn 0.000000 -1.000000 0.000000
vn 0.000000 -1.000000 0.000000
vn 0.000000 -1.000000 0.000000
f -4//-4 -3//-3 -2//-2
f -2//-2 -3//-3 -1//-1
v 2.097915e+02 -3.559146e+01 0.000000e+00
v 2.097915e+02 -1.197915e+02 0.000000e+00
v 2.097915e+02 -3.559146e+01 2.540000e+01
v 2.097915e+02 -1.197915e+02 2.540000e+01
vn -1.000000 -0.000000 -0.000000
vn -1.000000 -0.000000 -0.000000
vn -1.000000 -0.000000 -0.000000
vn -1.000000 -0.000000 -0.000000
f -4//-4 -3//-3 -2//-2
f -2//-2 -3//-3 -1//-1
v 3.559146e+01 -2.097915e+02 2.540000e+01
v 1.197915e+02 -2.097915e+02 2.540000e+01
v 3.559146e+01 -2.097915e+02 0.000000e+00
v 1.197915e+02 -2.097915e+02 0.000000e+00
vn -0.000000 1.000000 -0.000000
vn -0.000000 1.000000 -0.000000
vn -0.000000 1.000000 -0.000000
vn -0.000000 1.000000 -0.000000
f -4//-4 -3//-3 -2//-2
f -2//-2 -3//-3 -1//-1
v 1.197915e+02 -2.097915e+02 2.540000e+01
v 2.097915e+02 -1.197915e+02 2.540000e+01
v 1.197915e+02 -2.097915e+02 0.000000e+00
v 2.097915e+02 -1.197915e+02 0.000000e+00
vn -0.707107 0.707107 0.000000
vn -0.707107 0.707107 0.000000
vn -0.707107 0.707107 0.000000
vn -0.707107 0.707107 0.000000
f -4//-4 -3//-3 -2//-2
f -2//-2 -3//-3 -1//-1
v 8.059146e+01 -3.559146e+01 0.000000e+00
v 8.059146e+01 -3.559146e+01 2.540000e+01
v 3.559146e+01 -8.059146e+01 0.000000e+00
v 3.559146e+01 -8.059146e+01 2.540000e+01
vn 0.707107 -0.707107 0.000000
vn 0.707107 -0.707107 0.000000
vn 0.707107 -0.707107 0.000000
vn 0.707107 -0.707107 0.000000
f -4//-4 -3//-3 -2//-2
f -2//-2 -3//-3 -1//-1
